<?xml version="1.0" encoding="UTF-8" standalone="no"?>
<svg
   xmlns:dc="http://purl.org/dc/elements/1.1/"
   xmlns:cc="http://creativecommons.org/ns#"
   xmlns:rdf="http://www.w3.org/1999/02/22-rdf-syntax-ns#"
   xmlns:svg="http://www.w3.org/2000/svg"
   xmlns="http://www.w3.org/2000/svg"
   xmlns:sodipodi="http://sodipodi.sourceforge.net/DTD/sodipodi-0.dtd"
   xmlns:inkscape="http://www.inkscape.org/namespaces/inkscape"
   viewBox="0.0 0.0 348.0 348.0"
   fill="none"
   stroke-linecap="square"
   stroke-miterlimit="10"
   version="1.1"
   id="svg121"
   sodipodi:docname="Needy.svg"
   inkscape:version="0.92.4 (5da689c313, 2019-01-14)">
  <metadata
     id="metadata127">
    <rdf:RDF>
      <cc:Work
         rdf:about="">
        <dc:format>image/svg+xml</dc:format>
        <dc:type
           rdf:resource="http://purl.org/dc/dcmitype/StillImage" />
      </cc:Work>
    </rdf:RDF>
  </metadata>
  <defs
     id="defs125" />
  <sodipodi:namedview
     pagecolor="#ffffff"
     bordercolor="#666666"
     borderopacity="1"
     objecttolerance="10"
     gridtolerance="10"
     guidetolerance="10"
     inkscape:pageopacity="0"
     inkscape:pageshadow="2"
     inkscape:window-width="1920"
     inkscape:window-height="1017"
     id="namedview123"
     showgrid="false"
     inkscape:zoom="2"
     inkscape:cx="141.76072"
     inkscape:cy="161.33175"
     inkscape:window-x="-32000"
     inkscape:window-y="-32000"
     inkscape:window-maximized="0"
     inkscape:current-layer="svg121" />
  <clipPath
     id="a">
    <path
       d="M0 0h348v348H0V0z"
       id="path2" />
  </clipPath>
  <g
     clip-path="url(#a)"
     id="g119">
    <path
       d="M0 0h348v348H0z"
       id="path5"
       fill-opacity="0"
       fill="#000" />
    <path
       d="M-6 0h354.016v347.969H-6z"
       id="path7"
       fill="#fff" />
    <path
       d="M5.079 5.776h336.913v337.67H5.08z"
       id="path9"
       fill-opacity="0"
       fill="#000" />
    <path
       d="M5.079 5.776h336.913v337.67H5.08z"
       id="path11"
       stroke-linejoin="round"
       stroke-linecap="butt"
       stroke-width="2"
       stroke="#000" />
    <path
       d="M133.843 15.667h74.33v56.882h-74.33z"
       id="path13"
       fill="#000" />
    <path
       d="M154.54 44.09q0-4.063.827-6.531.844-2.485 2.485-3.829 1.656-1.343 4.156-1.343 1.844 0 3.234.75 1.39.734 2.297 2.14.906 1.39 1.422 3.407.516 2 .516 5.406 0 4.031-.829 6.515-.828 2.47-2.484 3.829-1.64 1.343-4.156 1.343-3.313 0-5.203-2.375-2.266-2.86-2.266-9.312zm2.89 0q0 5.64 1.312 7.515 1.328 1.86 3.266 1.86 1.937 0 3.25-1.875 1.328-1.875 1.328-7.5 0-5.656-1.328-7.516-1.313-1.86-3.281-1.86-1.938 0-3.094 1.641-1.453 2.094-1.453 7.735zm14.906 0q0-4.063.828-6.531.844-2.485 2.484-3.829 1.657-1.343 4.157-1.343 1.843 0 3.234.75 1.39.734 2.297 2.14.906 1.39 1.422 3.407.515 2 .515 5.406 0 4.031-.828 6.515-.828 2.47-2.484 3.829-1.64 1.343-4.156 1.343-3.313 0-5.203-2.375-2.266-2.86-2.266-9.312zm2.89 0q0 5.64 1.313 7.515 1.328 1.86 3.266 1.86 1.937 0 3.25-1.875 1.328-1.875 1.328-7.5 0-5.656-1.328-7.516-1.313-1.86-3.282-1.86-1.937 0-3.093 1.641-1.453 2.094-1.453 7.735zM145.803 164.96c0-15.707 12.416-28.44 27.732-28.44 7.355 0 14.41 2.996 19.61 8.33 5.2 5.334 8.123 12.568 8.123 20.11 0 15.708-12.416 28.442-27.733 28.442-15.316 0-27.732-12.734-27.732-28.441z"
       id="path15"
       fill="#fff" />
    <path
       d="M145.803 164.96c0-15.707 12.416-28.44 27.732-28.44 7.355 0 14.41 2.996 19.61 8.33 5.2 5.334 8.123 12.568 8.123 20.11 0 15.708-12.416 28.442-27.733 28.442-15.316 0-27.732-12.734-27.732-28.441z"
       id="path17"
       stroke-linejoin="round"
       stroke-linecap="butt"
       stroke-width="2"
       stroke="#000" />
    <path
       d="M148.85 82.887h52.41v48h-52.41z"
       id="path19"
       fill-opacity="0"
       fill="#000" />
    <path
       d="M168.241 96.213h1.797v7.844q0 2.063-.469 3.266-.453 1.203-1.672 1.969-1.203.75-3.172.75-1.906 0-3.125-.657-1.218-.656-1.734-1.906t-.516-3.422v-7.844h1.797v7.844q0 1.766.328 2.61.329.843 1.125 1.296.813.454 1.97.454 1.984 0 2.827-.891.844-.906.844-3.469v-7.844zm4.551 13.594V96.213h5.125q1.36 0 2.078.125 1 .172 1.672.641.672.469 1.078 1.313.422.843.422 1.843 0 1.735-1.11 2.938-1.093 1.203-3.984 1.203h-3.484v5.531h-1.797zm1.797-7.14h3.516q1.75 0 2.468-.641.735-.656.735-1.828 0-.86-.438-1.469-.422-.61-1.125-.797-.453-.125-1.672-.125h-3.484v4.86z"
       id="path21"
       fill="#000" />
    <path
       d="M39.766 202.433c0-8.019 6.79-14.52 15.166-14.52 4.022 0 7.88 1.53 10.723 4.253 2.844 2.723 4.442 6.416 4.442 10.267 0 8.02-6.79 14.52-15.165 14.52-8.376 0-15.166-6.5-15.166-14.52z"
       id="path23"
       fill="#fff" />
    <path
       d="M39.766 202.433c0-8.019 6.79-14.52 15.166-14.52 4.022 0 7.88 1.53 10.723 4.253 2.844 2.723 4.442 6.416 4.442 10.267 0 8.02-6.79 14.52-15.165 14.52-8.376 0-15.166-6.5-15.166-14.52z"
       id="path25"
       stroke-linejoin="round"
       stroke-linecap="butt"
       stroke-width="2"
       stroke="#000" />
    <path
       d="M85.021 242.138c0-8.02 6.79-14.52 15.165-14.52 4.022 0 7.88 1.53 10.724 4.253 2.844 2.723 4.442 6.416 4.442 10.267 0 8.019-6.79 14.52-15.166 14.52-8.375 0-15.165-6.501-15.165-14.52z"
       id="path27"
       fill="#fff" />
    <path
       d="M85.021 242.138c0-8.02 6.79-14.52 15.165-14.52 4.022 0 7.88 1.53 10.724 4.253 2.844 2.723 4.442 6.416 4.442 10.267 0 8.019-6.79 14.52-15.166 14.52-8.375 0-15.165-6.501-15.165-14.52z"
       id="path29"
       stroke-linejoin="round"
       stroke-linecap="butt"
       stroke-width="2"
       stroke="#000" />
    <path
       d="M132.694 280.23c0-8.02 6.79-14.52 15.166-14.52 4.022 0 7.879 1.53 10.723 4.253 2.844 2.723 4.442 6.416 4.442 10.267 0 8.019-6.79 14.52-15.165 14.52-8.376 0-15.166-6.501-15.166-14.52z"
       id="path31"
       fill="#fff" />
    <path
       d="M132.694 280.23c0-8.02 6.79-14.52 15.166-14.52 4.022 0 7.879 1.53 10.723 4.253 2.844 2.723 4.442 6.416 4.442 10.267 0 8.019-6.79 14.52-15.165 14.52-8.376 0-15.166-6.501-15.166-14.52z"
       id="path33"
       stroke-linejoin="round"
       stroke-linecap="butt"
       stroke-width="2"
       stroke="#000" />
    <path
       d="M41.597 247.714c0-8.02 6.79-14.52 15.165-14.52 4.023 0 7.88 1.53 10.724 4.253 2.844 2.723 4.442 6.416 4.442 10.267 0 8.019-6.79 14.52-15.166 14.52-8.375 0-15.165-6.501-15.165-14.52z"
       id="path35"
       fill="#fff" />
    <path
       d="M41.597 247.714c0-8.02 6.79-14.52 15.165-14.52 4.023 0 7.88 1.53 10.724 4.253 2.844 2.723 4.442 6.416 4.442 10.267 0 8.019-6.79 14.52-15.166 14.52-8.375 0-15.165-6.501-15.165-14.52z"
       id="path37"
       stroke-linejoin="round"
       stroke-linecap="butt"
       stroke-width="2"
       stroke="#000" />
    <path
       d="M86.852 287.419c0-8.02 6.79-14.52 15.165-14.52 4.022 0 7.88 1.53 10.724 4.253 2.844 2.723 4.441 6.416 4.441 10.267 0 8.019-6.79 14.52-15.165 14.52-8.376 0-15.165-6.501-15.165-14.52z"
       id="path39"
       fill="#fff" />
    <path
       d="M86.852 287.419c0-8.02 6.79-14.52 15.165-14.52 4.022 0 7.88 1.53 10.724 4.253 2.844 2.723 4.441 6.416 4.441 10.267 0 8.019-6.79 14.52-15.165 14.52-8.376 0-15.165-6.501-15.165-14.52z"
       id="path41"
       stroke-linejoin="round"
       stroke-linecap="butt"
       stroke-width="2"
       stroke="#000" />
    <path
       d="M134.525 325.51c0-8.019 6.79-14.52 15.165-14.52 4.022 0 7.88 1.53 10.724 4.254 2.844 2.722 4.442 6.416 4.442 10.266 0 8.02-6.79 14.52-15.166 14.52-8.375 0-15.165-6.5-15.165-14.52z"
       id="path43"
       fill="#fff" />
    <path
       d="M134.525 325.51c0-8.019 6.79-14.52 15.165-14.52 4.022 0 7.88 1.53 10.724 4.254 2.844 2.722 4.442 6.416 4.442 10.266 0 8.02-6.79 14.52-15.166 14.52-8.375 0-15.165-6.5-15.165-14.52z"
       id="path45"
       stroke-linejoin="round"
       stroke-linecap="butt"
       stroke-width="2"
       stroke="#000" />
    <path
       d="M182.214 280.23c0-8.02 6.79-14.52 15.165-14.52 4.022 0 7.88 1.53 10.724 4.253 2.844 2.723 4.442 6.416 4.442 10.267 0 8.019-6.79 14.52-15.166 14.52-8.375 0-15.165-6.501-15.165-14.52z"
       id="path47"
       fill="#fff" />
    <path
       d="M182.214 280.23c0-8.02 6.79-14.52 15.165-14.52 4.022 0 7.88 1.53 10.724 4.253 2.844 2.723 4.442 6.416 4.442 10.267 0 8.019-6.79 14.52-15.166 14.52-8.375 0-15.165-6.501-15.165-14.52z"
       id="path49"
       stroke-linejoin="round"
       stroke-linecap="butt"
       stroke-width="2"
       stroke="#000" />
    <path
       d="M184.045 325.51c0-8.019 6.79-14.52 15.165-14.52 4.022 0 7.88 1.53 10.724 4.254 2.844 2.722 4.441 6.416 4.441 10.266 0 8.02-6.79 14.52-15.165 14.52-8.376 0-15.165-6.5-15.165-14.52z"
       id="path51"
       fill="#fff" />
    <path
       d="M184.045 325.51c0-8.019 6.79-14.52 15.165-14.52 4.022 0 7.88 1.53 10.724 4.254 2.844 2.722 4.441 6.416 4.441 10.266 0 8.02-6.79 14.52-15.165 14.52-8.376 0-15.165-6.5-15.165-14.52z"
       id="path53"
       stroke-linejoin="round"
       stroke-linecap="butt"
       stroke-width="2"
       stroke="#000" />
    <path
       d="M226.042 242.138c0-8.02 6.79-14.52 15.165-14.52 4.022 0 7.88 1.53 10.724 4.253 2.844 2.723 4.442 6.416 4.442 10.267 0 8.019-6.79 14.52-15.166 14.52-8.375 0-15.165-6.501-15.165-14.52z"
       id="path55"
       fill="#fff" />
    <path
       d="M226.042 242.138c0-8.02 6.79-14.52 15.165-14.52 4.022 0 7.88 1.53 10.724 4.253 2.844 2.723 4.442 6.416 4.442 10.267 0 8.019-6.79 14.52-15.166 14.52-8.375 0-15.165-6.501-15.165-14.52z"
       id="path57"
       stroke-linejoin="round"
       stroke-linecap="butt"
       stroke-width="2"
       stroke="#000" />
    <path
       d="M227.873 287.419c0-8.02 6.79-14.52 15.165-14.52 4.022 0 7.88 1.53 10.724 4.253 2.844 2.723 4.441 6.416 4.441 10.267 0 8.019-6.79 14.52-15.165 14.52-8.376 0-15.165-6.501-15.165-14.52z"
       id="path59"
       fill="#fff" />
    <path
       d="M227.873 287.419c0-8.02 6.79-14.52 15.165-14.52 4.022 0 7.88 1.53 10.724 4.253 2.844 2.723 4.441 6.416 4.441 10.267 0 8.019-6.79 14.52-15.165 14.52-8.376 0-15.165-6.501-15.165-14.52z"
       id="path61"
       stroke-linejoin="round"
       stroke-linecap="butt"
       stroke-width="2"
       stroke="#000" />
    <path
       d="M272.417 202.433c0-8.019 6.79-14.52 15.166-14.52 4.022 0 7.88 1.53 10.723 4.253 2.844 2.723 4.442 6.416 4.442 10.267 0 8.02-6.79 14.52-15.165 14.52-8.376 0-15.166-6.5-15.166-14.52z"
       id="path63"
       fill="#fff" />
    <path
       d="M272.417 202.433c0-8.019 6.79-14.52 15.166-14.52 4.022 0 7.88 1.53 10.723 4.253 2.844 2.723 4.442 6.416 4.442 10.267 0 8.02-6.79 14.52-15.165 14.52-8.376 0-15.166-6.5-15.166-14.52z"
       id="path65"
       stroke-linejoin="round"
       stroke-linecap="butt"
       stroke-width="2"
       stroke="#000" />
    <path
       d="M274.248 247.714c0-8.02 6.79-14.52 15.165-14.52 4.022 0 7.88 1.53 10.724 4.253 2.844 2.723 4.442 6.416 4.442 10.267 0 8.019-6.79 14.52-15.166 14.52-8.375 0-15.165-6.501-15.165-14.52z"
       id="path67"
       fill="#fff" />
    <path
       d="M274.248 247.714c0-8.02 6.79-14.52 15.165-14.52 4.022 0 7.88 1.53 10.724 4.253 2.844 2.723 4.442 6.416 4.442 10.267 0 8.019-6.79 14.52-15.166 14.52-8.375 0-15.165-6.501-15.165-14.52z"
       id="path69"
       stroke-linejoin="round"
       stroke-linecap="butt"
       stroke-width="2"
       stroke="#000" />
    <path
       d="M195.969 149.795l31.905 15.166-31.905 15.165z"
       id="path71"
       fill="#fff" />
    <path
       d="M195.969 149.795l31.905 15.166-31.905 15.165z"
       id="path73"
       stroke-linejoin="round"
       stroke-linecap="butt"
       stroke-width="2"
       stroke="#000" />
    <path
       d="M101.354 159.383c0-40.764 32.997-73.81 73.701-73.81a73.645 73.645 0 0 1 52.114 21.618 73.867 73.867 0 0 1 21.587 52.192c0 40.765-32.997 73.811-73.7 73.811-40.705 0-73.702-33.046-73.702-73.81z"
       id="path75"
       fill-opacity="0"
       fill="#000" />
    <path
       d="M101.354 159.383c0-40.764 32.997-73.81 73.701-73.81a73.645 73.645 0 0 1 52.114 21.618 73.867 73.867 0 0 1 21.587 52.192c0 40.765-32.997 73.811-73.7 73.811-40.705 0-73.702-33.046-73.702-73.81z"
       id="path77"
       stroke-linejoin="round"
       stroke-linecap="butt"
       stroke-width="2"
       stroke="#000" />
    <path
       d="M15.262 17.706h109.89v54.835H15.262z"
       id="path79"
       fill="#fff" />
    <path
       d="M15.262 17.706h109.89v54.835H15.262z"
       id="path81"
       stroke-linejoin="round"
       stroke-linecap="butt"
       stroke-width="2"
       stroke="#000" />
    <path
       d="M15.262 72.654l39.686-54.08"
       id="path83"
       fill-opacity="0"
       fill="#000" />
    <path
       d="M15.262 72.654l39.686-54.08"
       id="path85"
       stroke-linejoin="round"
       stroke-linecap="butt"
       stroke-width="2"
       stroke="#000" />
    <path
       d="M37.566 72.654l39.686-54.08"
       id="path87"
       fill-opacity="0"
       fill="#000" />
    <path
       d="M37.566 72.654l39.686-54.08"
       id="path89"
       stroke-linejoin="round"
       stroke-linecap="butt"
       stroke-width="2"
       stroke="#000" />
    <path
       d="M59.87 72.654l39.686-54.08"
       id="path91"
       fill-opacity="0"
       fill="#000" />
    <path
       d="M59.87 72.654l39.686-54.08"
       id="path93"
       stroke-linejoin="round"
       stroke-linecap="butt"
       stroke-width="2"
       stroke="#000" />
    <path
       d="M82.175 72.654l39.685-54.08"
       id="path95"
       fill-opacity="0"
       fill="#000" />
    <path
       d="M82.175 72.654l39.685-54.08"
       id="path97"
       stroke-linejoin="round"
       stroke-linecap="butt"
       stroke-width="2"
       stroke="#000" />
    <path
       d="M216.864 16.634h109.89v54.835h-109.89z"
       id="path99"
       fill="#fff" />
    <path
       d="M216.864 16.634h109.89v54.835h-109.89z"
       id="path101"
       stroke-linejoin="round"
       stroke-linecap="butt"
       stroke-width="2"
       stroke="#000" />
    <path
       d="M216.864 71.581l39.685-54.078"
       id="path103"
       fill-opacity="0"
       fill="#000" />
    <path
       d="M216.864 71.581l39.685-54.078"
       id="path105"
       stroke-linejoin="round"
       stroke-linecap="butt"
       stroke-width="2"
       stroke="#000" />
    <path
       d="M239.168 71.581l39.685-54.078"
       id="path107"
       fill-opacity="0"
       fill="#000" />
    <path
       d="M239.168 71.581l39.685-54.078"
       id="path109"
       stroke-linejoin="round"
       stroke-linecap="butt"
       stroke-width="2"
       stroke="#000" />
    <path
       d="M261.472 71.581l39.685-54.078"
       id="path111"
       fill-opacity="0"
       fill="#000" />
    <path
       d="M261.472 71.581l39.685-54.078"
       id="path113"
       stroke-linejoin="round"
       stroke-linecap="butt"
       stroke-width="2"
       stroke="#000" />
    <path
       d="M283.776 71.581l39.685-54.078"
       id="path115"
       fill-opacity="0"
       fill="#000" />
    <path
       d="M283.776 71.581l39.685-54.078"
       id="path117"
       stroke-linejoin="round"
       stroke-linecap="butt"
       stroke-width="2"
       stroke="#000" />
  </g>
  <path
     style="fill:none;fill-opacity:1;stroke:#000000;stroke-width:1.04268289;stroke-miterlimit:4;stroke-dasharray:none;stroke-opacity:1"
     d="m 52.369466,217.3716 c -8.153673,-1.25959 -14.121355,-8.71188 -13.206904,-16.49243 0.887204,-7.54871 6.845653,-13.00518 14.800752,-13.55383 4.865173,-0.33554 8.795156,1.1803 12.396211,4.78135 10.431659,10.43166 0.940759,27.57146 -13.990059,25.26491 z m 8.788715,-2.53812 c 2.45826,-1.0665 5.541068,-3.97031 6.800358,-6.4055 0.478371,-0.92507 0.979638,-3.21756 1.113926,-5.09442 0.317337,-4.43519 -1.139763,-8.03194 -4.425583,-10.92423 -7.681686,-6.76169 -20.252922,-3.58697 -23.407763,5.91137 -3.742646,11.26805 8.539363,21.44976 19.919062,16.51278 z"
     id="path3847"
     inkscape:connector-curvature="0" />
  <path
     style="fill:none;fill-opacity:1;stroke:#000000;stroke-width:1.04268289;stroke-miterlimit:4;stroke-dasharray:none;stroke-opacity:1"
     d="m 51.206091,217.49232 c -4.8192,-1.26064 -8.501914,-4.19951 -10.650561,-8.49934 -3.986817,-7.97833 -0.217106,-17.62728 8.102903,-20.7402 6.358601,-2.37905 13.199268,-1.00824 17.742959,3.55555 7.531108,7.56442 5.408723,19.6122 -4.290967,24.35782 -3.004745,1.47009 -8.021679,2.08024 -10.904334,1.32617 z m 10.072669,-3.14745 c 2.989147,-1.52495 6.211197,-4.93995 6.858031,-7.26871 0.894328,-3.21981 0.650228,-7.85043 -0.543861,-10.31708 -2.178396,-4.49997 -7.024129,-7.45593 -12.253572,-7.47485 -6.06512,-0.0219 -10.523918,2.52231 -12.949031,7.38888 -3.762559,7.55047 0.246523,15.82436 9.076434,18.73183 2.204561,0.72591 7.414518,0.16303 9.811999,-1.06007 z"
     id="path3849"
     inkscape:connector-curvature="0" />
  <path
     style="fill:none;fill-opacity:1;stroke:none;stroke-width:1.04268289;stroke-miterlimit:4;stroke-dasharray:none;stroke-opacity:1"
     d="M 6.110056,174.41455 V 6.8032804 H 173.46066 340.81126 V 174.41455 342.02583 H 173.46066 6.110056 Z M 154.70038,340.42164 c 2.77183,-0.6889 6.53608,-3.29613 8.32567,-5.76659 5.85004,-8.07574 2.65948,-19.32212 -6.67807,-23.53959 -3.56758,-1.61137 -9.81356,-1.56547 -13.52662,0.0994 -3.83431,1.71923 -7.67457,6.01653 -8.78252,9.82775 -2.15435,7.41069 1.15751,14.81364 8.24469,18.42925 3.62318,1.8484 7.58266,2.15128 12.41685,0.94979 z m 49.52744,0 c 2.77182,-0.6889 6.53608,-3.29613 8.32567,-5.76659 5.85003,-8.07574 2.65948,-19.32212 -6.67808,-23.53959 -3.56757,-1.61137 -9.81356,-1.56547 -13.52661,0.0994 -3.83431,1.71923 -7.67457,6.01653 -8.78253,9.82775 -2.15434,7.41069 1.15752,14.81364 8.24469,18.42925 3.62318,1.8484 7.58267,2.15128 12.41686,0.94979 z m -96.3173,-38.31759 c 2.97675,-1.01428 6.72377,-4.24439 8.56173,-7.38063 1.08731,-1.85535 1.43653,-3.24804 1.62325,-6.47354 0.22051,-3.80925 0.11694,-4.35532 -1.41713,-7.47144 -1.77335,-3.60221 -4.03619,-5.81366 -7.84804,-7.66986 -1.84973,-0.90073 -3.3232,-1.15595 -6.79345,-1.17669 -3.831984,-0.0229 -4.834382,0.1714 -7.410576,1.43648 -3.564135,1.75021 -6.798151,5.24299 -7.929843,8.56431 -1.238316,3.63426 -1.063745,8.71955 0.407809,11.87964 1.469964,3.15666 5.755318,7.16549 8.819664,8.25055 2.946324,1.04328 8.984716,1.06402 11.986586,0.0412 z m 142.56384,-0.65267 c 3.40962,-1.7647 5.7039,-4.05958 7.29238,-7.29429 2.01511,-4.10347 2.029,-9.55637 0.0341,-13.38888 -1.73639,-3.33591 -4.66043,-6.14708 -7.96368,-7.65627 -3.70195,-1.69134 -9.85343,-1.6696 -13.6957,0.0484 -3.83398,1.71431 -7.67362,6.00984 -8.78295,9.82578 -2.36471,8.13432 1.86918,16.15152 10.16575,19.24966 2.90108,1.08332 10.19501,0.64152 12.95008,-0.78441 z m -95.52132,-7.0958 c 3.00878,-1.37678 6.13021,-4.33446 7.73713,-7.33128 1.64037,-3.05919 1.61046,-10.54531 -0.0546,-13.67136 -2.94869,-5.53593 -8.31713,-8.70218 -14.78666,-8.72102 -3.52469,-0.0103 -4.38069,0.1948 -7.53983,1.80626 -7.65101,3.90272 -10.81435,12.45042 -7.37583,19.93026 1.69991,3.69782 3.44005,5.64122 6.58278,7.35171 4.90919,2.67193 10.48494,2.90144 15.43703,0.63543 z m 49.26676,0.15887 c 2.81882,-1.22948 6.4439,-4.62788 7.98974,-7.49015 1.64898,-3.05323 1.6235,-10.53598 -0.0465,-13.67136 -2.94869,-5.53593 -8.31713,-8.70218 -14.78666,-8.72102 -3.52469,-0.0103 -4.38069,0.1948 -7.53983,1.80626 -8.96732,4.57417 -11.52011,15.31491 -5.51232,23.19284 4.43142,5.81086 12.96629,7.90576 19.89562,4.88343 z M 64.239627,261.61261 c 12.472166,-6.44638 11.422518,-23.60886 -1.748011,-28.58117 -2.306493,-0.87078 -3.734379,-1.06221 -6.593452,-0.88396 -6.499903,0.40525 -11.019079,3.30657 -13.791134,8.85395 -4.23759,8.48017 -0.09831,18.10142 9.298361,21.61291 3.069723,1.14715 9.67401,0.63167 12.834236,-1.00173 z m 232.478093,0.16151 c 3.27216,-1.60368 6.03766,-4.372 7.62676,-7.63452 1.54896,-3.1801 1.6912,-9.22247 0.29136,-12.37686 -1.25941,-2.83791 -4.79405,-6.47623 -7.857,-8.08746 -2.28168,-1.20024 -3.2454,-1.38149 -7.31971,-1.37667 -3.91151,0.005 -5.12207,0.217 -7.27679,1.27656 -9.90033,4.86837 -12.13866,17.40041 -4.47641,25.06266 3.41388,3.41388 6.90261,4.70091 12.27454,4.52822 3.15709,-0.1015 4.79449,-0.43979 6.73725,-1.39193 z m -189.70431,-5.47743 c 3.68947,-1.65453 6.2113,-4.04575 7.90577,-7.49631 2.01633,-4.10595 2.02832,-9.54629 0.0296,-13.42196 -1.62679,-3.15446 -4.85022,-6.19508 -8.15599,-7.69345 -3.78484,-1.71551 -9.854135,-1.57131 -13.724323,0.32608 -3.934069,1.92871 -7.274882,5.67459 -8.481079,9.5094 -4.089876,13.00278 9.649322,24.50594 22.426042,18.77624 z m 137.45436,1.20759 c 3.63565,-0.7706 5.96757,-1.99969 8.43603,-4.44642 4.78195,-4.73984 5.92294,-11.75054 2.89769,-17.8046 -2.77929,-5.56186 -7.97023,-8.6481 -14.56644,-8.66039 -6.70382,-0.0125 -11.79268,3.04209 -14.61332,8.77163 -2.96385,6.02042 -1.84801,13.00671 2.82352,17.67825 2.29791,2.2979 4.41823,3.4588 7.87974,4.31424 3.37836,0.83489 3.85259,0.84467 7.14278,0.14729 z m -63.44766,-23.38131 c 18.31583,-1.65618 34.21805,-9.00907 46.8901,-21.68112 26.66097,-26.66098 29.428,-68.31504 6.55456,-98.67039 -11.15332,-14.801587 -28.32003,-25.111734 -47.18557,-28.339166 -5.26231,-0.900253 -7.62901,-1.024353 -14.86122,-0.77926 -15.16277,0.51386 -26.76572,4.258656 -39.62195,12.787786 -6.06692,4.02493 -15.63204,13.63192 -19.7441,19.8305 -12.13251,18.28874 -15.853045,39.83361 -10.49814,60.79262 8.00349,31.32559 35.29525,53.96323 67.77882,56.22037 4.58926,0.31889 5.53432,0.30462 10.6875,-0.16134 z M 62.555063,216.72502 c 5.668535,-2.77335 8.927331,-7.9468 8.918254,-14.15803 -0.0072,-4.91917 -1.526399,-8.32924 -5.211021,-11.69677 -8.286222,-7.57314 -21.945084,-5.08947 -26.563714,4.83024 -1.455976,3.12708 -1.693076,8.66715 -0.512573,11.97673 1.549241,4.34334 5.498969,8.28286 10.051332,10.02534 3.219683,1.23238 9.785967,0.75042 13.317722,-0.97751 z m 232.138527,-0.26907 c 12.32521,-5.83087 12.17083,-22.28622 -0.26571,-28.32222 -1.84303,-0.89451 -3.33577,-1.15306 -6.79345,-1.1767 -3.83645,-0.0262 -4.83138,0.16613 -7.41057,1.43268 -12.41854,6.09829 -11.5083,23.98425 1.46245,28.73665 1.12094,0.41071 3.79759,0.76308 5.94812,0.78306 3.26571,0.0303 4.42902,-0.20918 7.05916,-1.45347 z M 126.27926,45.121876 V 16.969439 H 70.235053 14.190848 l -0.135517,27.631096 c -0.07454,15.197103 -0.02284,27.925409 0.114875,28.285124 0.19908,0.519997 11.71186,0.626835 56.17972,0.521342 l 55.929334,-0.132687 z m 82.11128,-0.782012 V 15.666085 h -37.27592 -37.27591 v 28.673779 28.673779 h 37.27591 37.27592 z m 119.38718,-0.204893 c 0,-25.377244 -0.0867,-28.390586 -0.82465,-28.673779 -1.07782,-0.413599 -109.36128,-0.413599 -110.4391,0 -0.73799,0.283193 -0.82465,3.296535 -0.82465,28.673779 v 28.357331 h 56.0442 56.0442 z"
     id="path3851"
     inkscape:connector-curvature="0" />
  <path
     style="fill:none;fill-opacity:1;stroke:none;stroke-width:1.04268289;stroke-miterlimit:4;stroke-dasharray:none;stroke-opacity:1"
     d="M 6.6313975,174.41455 V 7.3246219 H 173.46066 340.28992 V 174.41455 341.50449 l -68.16539,-0.0115 -68.1654,-0.0115 2.31608,-1.05069 c 3.69423,-1.67588 6.59554,-4.38594 8.20559,-7.6647 1.2396,-2.52436 1.46919,-3.64365 1.46919,-7.16263 0,-3.50541 -0.23118,-4.64149 -1.44922,-7.12181 -1.66889,-3.39839 -4.67282,-6.32612 -8.13179,-7.9255 -1.93107,-0.8929 -3.39384,-1.11303 -7.36259,-1.10801 -4.49144,0.006 -5.21028,0.14836 -7.7177,1.53174 -3.44384,1.90002 -6.08854,4.78439 -7.7855,8.49104 -1.13274,2.47422 -1.27546,3.38729 -1.06918,6.84 0.38291,6.40932 3.24009,10.79267 8.8681,13.60501 l 3.17874,1.58844 -20.02458,-0.0115 -20.02457,-0.0115 2.31608,-1.05068 c 3.69422,-1.67588 6.59553,-4.38594 8.20558,-7.6647 1.92376,-3.9176 2.07678,-9.9761 0.34712,-13.74321 -1.58496,-3.45195 -4.51421,-6.4604 -7.91771,-8.13179 -2.60255,-1.27806 -3.536,-1.44848 -7.90382,-1.44295 -4.49143,0.006 -5.21027,0.14836 -7.7177,1.53174 -3.44384,1.90002 -6.08853,4.78438 -7.7855,8.49103 -1.13274,2.47423 -1.27546,3.38729 -1.06918,6.84001 0.38292,6.40932 3.2401,10.79267 8.8681,13.60501 l 3.17875,1.58853 H 75.792407 6.6313975 Z M 107.9179,302.89341 c 2.65349,-0.73688 7.05315,-4.41073 8.94326,-7.46791 1.3303,-2.15172 1.57187,-3.12418 1.76154,-7.09127 0.19495,-4.07757 0.0715,-4.92158 -1.0917,-7.46229 -1.60043,-3.4958 -4.55244,-6.5403 -7.97486,-8.22472 -2.19709,-1.08134 -3.31693,-1.26316 -7.77993,-1.26316 -6.036617,0 -8.148587,0.82237 -11.998073,4.67186 -3.692375,3.69237 -4.161718,4.96283 -4.162677,11.26793 -0.001,5.21944 0.08244,5.64695 1.56319,8.02947 1.894247,3.04783 5.702527,6.36297 8.424372,7.33347 2.392744,0.85316 9.554008,0.97331 12.314878,0.20662 z m 143.0778,-0.92904 c 3.40029,-1.74697 5.70132,-4.04596 7.29238,-7.28594 1.24796,-2.54129 1.4537,-3.59153 1.44833,-7.39345 -0.005,-3.60368 -0.2284,-4.84966 -1.1956,-6.6706 -1.73331,-3.26333 -4.35784,-5.95639 -7.50269,-7.69858 -2.54216,-1.40831 -3.18506,-1.53174 -7.97838,-1.53174 -4.80447,0 -5.43242,0.12131 -8.00541,1.54646 -3.05693,1.69319 -6.20592,4.95203 -7.71186,7.98086 -1.47395,2.96452 -1.3506,10.56668 0.21951,13.52755 1.84652,3.48211 4.10175,5.70298 7.57987,7.46437 3.10424,1.57204 3.42231,1.62529 8.43923,1.4128 4.01502,-0.17006 5.7194,-0.48078 7.41462,-1.35173 z m -96.12452,-6.76935 c 2.96483,-1.31149 6.86736,-4.88121 8.33693,-7.62594 1.54496,-2.88557 1.63964,-11.50851 0.15907,-14.48698 -3.59636,-7.23478 -13.65912,-11.12949 -21.29213,-8.24095 -8.14168,3.08104 -12.89545,11.71078 -10.66511,19.3609 1.71589,5.88558 5.0828,9.43695 10.93408,11.53315 3.39894,1.21766 9.11,0.97139 12.52716,-0.54018 z m 49.42084,0.0472 c 3.075,-1.36022 6.38021,-4.35161 8.16776,-7.39225 1.27259,-2.16469 1.40484,-2.88042 1.40484,-7.60306 0,-6.02545 -0.65186,-7.82071 -4.09806,-11.28632 -4.57881,-4.60461 -12.28135,-6.34548 -18.18755,-4.11061 -3.95519,1.49662 -8.22016,5.40585 -9.81901,9.00002 -4.0336,9.0674 1.43721,19.78598 11.3732,22.28271 2.98015,0.74886 8.43729,0.31337 11.15882,-0.89049 z M 64.042768,262.41764 c 3.432757,-1.54164 6.454452,-4.47614 8.124929,-7.89047 2.972053,-6.07466 1.471226,-14.04411 -3.488702,-18.52511 -3.886825,-3.51151 -5.903472,-4.23995 -11.738149,-4.23995 -4.662554,0 -5.529544,0.15524 -8.205313,1.46919 -6.636737,3.25901 -10.310833,11.08513 -8.507923,18.12257 1.355132,5.2896 4.502949,8.99981 9.689953,11.42116 3.123071,1.45788 10.498681,1.27127 14.125205,-0.35739 z m 231.598092,0.56964 c 3.06686,-1.04498 7.71051,-5.21372 9.17304,-8.23491 1.56733,-3.23768 1.9281,-8.26214 0.85764,-11.9444 -0.67877,-2.33488 -1.50078,-3.6153 -3.84577,-5.99044 -4.29237,-4.34754 -6.02401,-5.05542 -12.36664,-5.05542 -4.39509,0 -5.59761,0.18924 -7.66105,1.20561 -9.3724,4.6165 -12.19397,16.50417 -5.88,24.77333 1.88232,2.4652 4.37796,4.25378 7.48425,5.36381 2.66758,0.95326 9.28231,0.88971 12.23853,-0.11758 z M 107.4255,256.89269 c 3.81655,-1.74727 6.31335,-4.10574 8.01502,-7.57096 1.24549,-2.53625 1.45459,-3.59908 1.45459,-7.39346 0,-3.93754 -0.17234,-4.74256 -1.54645,-7.2234 -3.3395,-6.02919 -9.07786,-9.20756 -15.918486,-8.81695 -6.800873,0.38834 -11.637128,3.50326 -14.578646,9.38976 -5.566003,11.13856 3.461107,23.93622 16.294092,23.09999 2.2115,-0.14411 4.56838,-0.70143 6.27988,-1.48498 z m 141.01692,0.1441 c 3.19172,-1.37304 7.02427,-5.28837 8.55443,-8.73917 0.76943,-1.73523 1.09114,-3.54081 1.0927,-6.1327 0.007,-10.98748 -10.31957,-18.53338 -21.45727,-15.68003 -7.56651,1.93845 -12.1894,7.85857 -12.26295,15.70405 -0.0691,7.3676 4.36091,13.21581 11.91297,15.72685 2.92206,0.97158 8.8553,0.54269 12.16012,-0.879 z m -58.55951,-23.46406 c 15.31196,-3.20747 27.94839,-10.03789 38.71739,-20.92806 10.54984,-10.66855 17.17475,-22.93415 20.54174,-38.03175 1.60455,-7.19474 1.72748,-22.20253 0.23864,-29.13282 -4.69058,-21.83385 -16.5603,-39.2001 -34.47703,-50.44233 -6.44279,-4.042664 -16.72033,-8.122708 -24.92082,-9.893231 -6.10094,-1.317221 -23.78807,-1.292249 -30.06457,0.04244 -13.49018,2.868692 -24.27207,8.247924 -34.43554,17.180371 -12.93967,11.37239 -20.8329,24.93615 -24.60213,42.27648 -1.626395,7.48222 -1.617647,22.20495 0.0176,29.64874 3.30084,15.02554 9.51357,26.80102 19.73453,37.4044 12.21139,12.66828 27.62843,20.52164 45.0078,22.92675 5.44071,0.75293 18.28999,0.19586 24.24238,-1.05101 z M 62.478744,217.56794 c 3.419572,-1.51538 6.448915,-4.45147 8.129381,-7.87914 1.215028,-2.47831 1.446811,-3.61924 1.446811,-7.12181 0,-3.50257 -0.231783,-4.6435 -1.446811,-7.1218 -1.737933,-3.54489 -4.687902,-6.33258 -8.651969,-8.17601 -2.459579,-1.1438 -3.641345,-1.35806 -7.361346,-1.33461 -5.284239,0.0333 -8.12134,1.11004 -11.758326,4.4625 -3.579189,3.29918 -4.555079,5.55893 -4.818218,11.15694 -0.189532,4.03212 -0.05342,5.11353 0.931906,7.40399 1.344086,3.12441 5.676993,7.47857 8.989452,9.03353 3.001494,1.409 10.924665,1.17816 14.53912,-0.42359 z M 294.7453,217.21012 c 7.1034,-3.30746 10.8042,-10.20992 9.45476,-17.63436 -0.64438,-3.54532 -1.93162,-5.97314 -4.56126,-8.60278 -3.60854,-3.60853 -6.18379,-4.56757 -12.26504,-4.56757 -4.41271,0 -5.55149,0.18065 -7.41462,1.17622 -6.74612,3.6048 -10.23185,10.58211 -8.91062,17.8362 0.66243,3.63697 1.89466,6.02074 4.41364,8.53825 3.53815,3.53608 5.91078,4.4058 12.17227,4.46192 3.63484,0.0326 4.91305,-0.18454 7.11087,-1.20788 z M 127.06127,45.121876 V 16.187426 H 70.235053 13.408836 v 28.630335 c 0,22.416463 0.141439,28.687403 0.651677,28.893291 0.358422,0.144626 25.93022,0.281478 56.826217,0.304114 l 56.17454,0.04116 z m 81.85061,-0.782012 V 15.144743 h -37.79726 -37.79725 v 29.195121 29.195121 h 37.79725 37.79726 z m 119.38719,0.487068 c 0,-18.432829 -0.18676,-28.535667 -0.53969,-29.195121 -0.52837,-0.987272 -1.7009,-1.008409 -55.93993,-1.008409 -42.39397,0 -55.54713,0.146874 -56.02587,0.62561 -0.47136,0.471363 -0.62561,7.669512 -0.62561,29.19512 v 28.569511 h 56.56555 56.56555 z"
     id="path3855"
     inkscape:connector-curvature="0" />
  <path
     style="fill:none;fill-opacity:1;stroke:none;stroke-width:1.04268289;stroke-miterlimit:4;stroke-dasharray:none;stroke-opacity:1"
     d="M 6.6313975,174.41455 V 7.3246219 H 173.46066 340.28992 V 174.41455 341.50449 l -68.16539,-0.0115 -68.1654,-0.0115 2.31608,-1.05069 c 3.69423,-1.67588 6.59554,-4.38594 8.20559,-7.6647 1.2396,-2.52436 1.46919,-3.64365 1.46919,-7.16263 0,-3.50541 -0.23118,-4.64149 -1.44922,-7.12181 -1.66889,-3.39839 -4.67282,-6.32612 -8.13179,-7.9255 -1.93107,-0.8929 -3.39384,-1.11303 -7.36259,-1.10801 -4.49144,0.006 -5.21028,0.14836 -7.7177,1.53174 -3.44384,1.90002 -6.08854,4.78439 -7.7855,8.49104 -1.13274,2.47422 -1.27546,3.38729 -1.06918,6.84 0.38291,6.40932 3.24009,10.79267 8.8681,13.60501 l 3.17874,1.58844 -20.02458,-0.0115 -20.02457,-0.0115 2.31608,-1.05068 c 3.69422,-1.67588 6.59553,-4.38594 8.20558,-7.6647 1.92376,-3.9176 2.07678,-9.9761 0.34712,-13.74321 -1.58496,-3.45195 -4.51421,-6.4604 -7.91771,-8.13179 -2.60255,-1.27806 -3.536,-1.44848 -7.90382,-1.44295 -4.49143,0.006 -5.21027,0.14836 -7.7177,1.53174 -3.44384,1.90002 -6.08853,4.78438 -7.7855,8.49103 -1.13274,2.47423 -1.27546,3.38729 -1.06918,6.84001 0.38292,6.40932 3.2401,10.79267 8.8681,13.60501 l 3.17875,1.58853 H 75.792407 6.6313975 Z M 107.9179,302.89341 c 2.65349,-0.73688 7.05315,-4.41073 8.94326,-7.46791 1.3303,-2.15172 1.57187,-3.12418 1.76154,-7.09127 0.19495,-4.07757 0.0715,-4.92158 -1.0917,-7.46229 -1.60043,-3.4958 -4.55244,-6.5403 -7.97486,-8.22472 -2.19709,-1.08134 -3.31693,-1.26316 -7.77993,-1.26316 -6.036617,0 -8.148587,0.82237 -11.998073,4.67186 -3.692375,3.69237 -4.161718,4.96283 -4.162677,11.26793 -0.001,5.21944 0.08244,5.64695 1.56319,8.02947 1.894247,3.04783 5.702527,6.36297 8.424372,7.33347 2.392744,0.85316 9.554008,0.97331 12.314878,0.20662 z m 143.0778,-0.92904 c 3.40029,-1.74697 5.70132,-4.04596 7.29238,-7.28594 1.24796,-2.54129 1.4537,-3.59153 1.44833,-7.39345 -0.005,-3.60368 -0.2284,-4.84966 -1.1956,-6.6706 -1.73331,-3.26333 -4.35784,-5.95639 -7.50269,-7.69858 -2.54216,-1.40831 -3.18506,-1.53174 -7.97838,-1.53174 -4.80447,0 -5.43242,0.12131 -8.00541,1.54646 -3.05693,1.69319 -6.20592,4.95203 -7.71186,7.98086 -1.47395,2.96452 -1.3506,10.56668 0.21951,13.52755 1.84652,3.48211 4.10175,5.70298 7.57987,7.46437 3.10424,1.57204 3.42231,1.62529 8.43923,1.4128 4.01502,-0.17006 5.7194,-0.48078 7.41462,-1.35173 z m -96.12452,-6.76935 c 2.96483,-1.31149 6.86736,-4.88121 8.33693,-7.62594 1.54496,-2.88557 1.63964,-11.50851 0.15907,-14.48698 -3.59636,-7.23478 -13.65912,-11.12949 -21.29213,-8.24095 -8.14168,3.08104 -12.89545,11.71078 -10.66511,19.3609 1.71589,5.88558 5.0828,9.43695 10.93408,11.53315 3.39894,1.21766 9.11,0.97139 12.52716,-0.54018 z m 49.42084,0.0472 c 3.075,-1.36022 6.38021,-4.35161 8.16776,-7.39225 1.27259,-2.16469 1.40484,-2.88042 1.40484,-7.60306 0,-6.02545 -0.65186,-7.82071 -4.09806,-11.28632 -4.57881,-4.60461 -12.28135,-6.34548 -18.18755,-4.11061 -3.95519,1.49662 -8.22016,5.40585 -9.81901,9.00002 -4.0336,9.0674 1.43721,19.78598 11.3732,22.28271 2.98015,0.74886 8.43729,0.31337 11.15882,-0.89049 z M 64.042768,262.41764 c 3.432757,-1.54164 6.454452,-4.47614 8.124929,-7.89047 2.972053,-6.07466 1.471226,-14.04411 -3.488702,-18.52511 -3.886825,-3.51151 -5.903472,-4.23995 -11.738149,-4.23995 -4.662554,0 -5.529544,0.15524 -8.205313,1.46919 -6.636737,3.25901 -10.310833,11.08513 -8.507923,18.12257 1.355132,5.2896 4.502949,8.99981 9.689953,11.42116 3.123071,1.45788 10.498681,1.27127 14.125205,-0.35739 z m 231.598092,0.56964 c 3.06686,-1.04498 7.71051,-5.21372 9.17304,-8.23491 1.56733,-3.23768 1.9281,-8.26214 0.85764,-11.9444 -0.67877,-2.33488 -1.50078,-3.6153 -3.84577,-5.99044 -4.29237,-4.34754 -6.02401,-5.05542 -12.36664,-5.05542 -4.39509,0 -5.59761,0.18924 -7.66105,1.20561 -9.3724,4.6165 -12.19397,16.50417 -5.88,24.77333 1.88232,2.4652 4.37796,4.25378 7.48425,5.36381 2.66758,0.95326 9.28231,0.88971 12.23853,-0.11758 z M 107.4255,256.89269 c 3.81655,-1.74727 6.31335,-4.10574 8.01502,-7.57096 1.24549,-2.53625 1.45459,-3.59908 1.45459,-7.39346 0,-3.93754 -0.17234,-4.74256 -1.54645,-7.2234 -3.3395,-6.02919 -9.07786,-9.20756 -15.918486,-8.81695 -6.800873,0.38834 -11.637128,3.50326 -14.578646,9.38976 -5.566003,11.13856 3.461107,23.93622 16.294092,23.09999 2.2115,-0.14411 4.56838,-0.70143 6.27988,-1.48498 z m 141.01692,0.1441 c 3.19172,-1.37304 7.02427,-5.28837 8.55443,-8.73917 0.76943,-1.73523 1.09114,-3.54081 1.0927,-6.1327 0.007,-10.98748 -10.31957,-18.53338 -21.45727,-15.68003 -7.56651,1.93845 -12.1894,7.85857 -12.26295,15.70405 -0.0691,7.3676 4.36091,13.21581 11.91297,15.72685 2.92206,0.97158 8.8553,0.54269 12.16012,-0.879 z m -58.55951,-23.46406 c 15.31196,-3.20747 27.94839,-10.03789 38.71739,-20.92806 10.54984,-10.66855 17.17475,-22.93415 20.54174,-38.03175 1.60455,-7.19474 1.72748,-22.20253 0.23864,-29.13282 -4.69058,-21.83385 -16.5603,-39.2001 -34.47703,-50.44233 -6.44279,-4.042664 -16.72033,-8.122708 -24.92082,-9.893231 -6.10094,-1.317221 -23.78807,-1.292249 -30.06457,0.04244 -13.49018,2.868692 -24.27207,8.247924 -34.43554,17.180371 -12.93967,11.37239 -20.8329,24.93615 -24.60213,42.27648 -1.626395,7.48222 -1.617647,22.20495 0.0176,29.64874 3.30084,15.02554 9.51357,26.80102 19.73453,37.4044 12.21139,12.66828 27.62843,20.52164 45.0078,22.92675 5.44071,0.75293 18.28999,0.19586 24.24238,-1.05101 z M 62.478744,217.56794 c 3.419572,-1.51538 6.448915,-4.45147 8.129381,-7.87914 1.215028,-2.47831 1.446811,-3.61924 1.446811,-7.12181 0,-3.50257 -0.231783,-4.6435 -1.446811,-7.1218 -1.737933,-3.54489 -4.687902,-6.33258 -8.651969,-8.17601 -2.459579,-1.1438 -3.641345,-1.35806 -7.361346,-1.33461 -5.284239,0.0333 -8.12134,1.11004 -11.758326,4.4625 -3.579189,3.29918 -4.555079,5.55893 -4.818218,11.15694 -0.189532,4.03212 -0.05342,5.11353 0.931906,7.40399 1.344086,3.12441 5.676993,7.47857 8.989452,9.03353 3.001494,1.409 10.924665,1.17816 14.53912,-0.42359 z M 294.7453,217.21012 c 7.1034,-3.30746 10.8042,-10.20992 9.45476,-17.63436 -0.64438,-3.54532 -1.93162,-5.97314 -4.56126,-8.60278 -3.60854,-3.60853 -6.18379,-4.56757 -12.26504,-4.56757 -4.41271,0 -5.55149,0.18065 -7.41462,1.17622 -6.74612,3.6048 -10.23185,10.58211 -8.91062,17.8362 0.66243,3.63697 1.89466,6.02074 4.41364,8.53825 3.53815,3.53608 5.91078,4.4058 12.17227,4.46192 3.63484,0.0326 4.91305,-0.18454 7.11087,-1.20788 z M 127.06127,45.121876 V 16.187426 H 70.235053 13.408836 v 28.630335 c 0,22.416463 0.141439,28.687403 0.651677,28.893291 0.358422,0.144626 25.93022,0.281478 56.826217,0.304114 l 56.17454,0.04116 z m 81.85061,-0.782012 V 15.144743 h -37.79726 -37.79725 v 29.195121 29.195121 h 37.79725 37.79726 z m 119.38719,0.487068 c 0,-18.432829 -0.18676,-28.535667 -0.53969,-29.195121 -0.52837,-0.987272 -1.7009,-1.008409 -55.93993,-1.008409 -42.39397,0 -55.54713,0.146874 -56.02587,0.62561 -0.47136,0.471363 -0.62561,7.669512 -0.62561,29.19512 v 28.569511 h 56.56555 56.56555 z"
     id="path3857"
     inkscape:connector-curvature="0" />
  <path
     style="fill:none;fill-opacity:1;stroke:none;stroke-width:1.04268289;stroke-miterlimit:4;stroke-dasharray:none;stroke-opacity:1"
     d="m 47.973979,217.41403 c -3.448594,-1.75539 -6.752662,-4.98823 -8.272027,-8.0937 -1.163318,-2.37774 -1.393525,-3.54182 -1.378551,-6.9709 0.0295,-6.75633 2.897282,-11.438 8.814028,-14.38898 2.606176,-1.29984 3.64076,-1.51239 7.457381,-1.53213 5.351903,-0.0277 8.857425,1.37289 12.462105,4.97901 3.390639,3.39198 4.477218,6.11594 4.451569,11.15966 -0.03408,6.70072 -3.045821,11.52947 -8.993031,14.41858 -3.627028,1.76199 -11.467788,1.99301 -14.541474,0.42846 z m 11.482061,-2.80256 c 2.848739,-0.85734 5.272207,-2.7487 7.259959,-5.66591 1.244514,-1.82644 1.433688,-2.61186 1.433688,-5.95242 0,-6.16867 -2.006867,-9.57798 -7.038109,-11.95651 -4.894799,-2.31401 -12.146714,-1.37523 -15.822184,2.04824 -2.179476,2.03004 -3.83636,5.98804 -3.866968,9.23748 -0.08446,8.96633 8.848173,15.05353 18.033614,12.28912 z"
     id="path3859"
     inkscape:connector-curvature="0" />
  <path
     style="fill:none;fill-opacity:1;stroke:none;stroke-width:1.04268289;stroke-miterlimit:4;stroke-dasharray:none;stroke-opacity:1"
     d="m 47.973979,217.41403 c -3.448594,-1.75539 -6.752662,-4.98823 -8.272027,-8.0937 -1.163318,-2.37774 -1.393525,-3.54182 -1.378551,-6.9709 0.0295,-6.75633 2.897282,-11.438 8.814028,-14.38898 2.606176,-1.29984 3.64076,-1.51239 7.457381,-1.53213 5.351903,-0.0277 8.857425,1.37289 12.462105,4.97901 3.390639,3.39198 4.477218,6.11594 4.451569,11.15966 -0.03408,6.70072 -3.045821,11.52947 -8.993031,14.41858 -3.627028,1.76199 -11.467788,1.99301 -14.541474,0.42846 z m 11.482061,-2.80256 c 2.848739,-0.85734 5.272207,-2.7487 7.259959,-5.66591 1.244514,-1.82644 1.433688,-2.61186 1.433688,-5.95242 0,-6.16867 -2.006867,-9.57798 -7.038109,-11.95651 -4.894799,-2.31401 -12.146714,-1.37523 -15.822184,2.04824 -2.179476,2.03004 -3.83636,5.98804 -3.866968,9.23748 -0.08446,8.96633 8.848173,15.05353 18.033614,12.28912 z"
     id="path3861"
     inkscape:connector-curvature="0" />
  <path
     style="fill:none;fill-opacity:1;stroke:none;stroke-width:1.04268289;stroke-miterlimit:4;stroke-dasharray:none;stroke-opacity:1"
     d=""
     id="path3863"
     inkscape:connector-curvature="0" />
  <path
     style="fill:none;fill-opacity:1;stroke:none;stroke-width:1.04268289;stroke-miterlimit:4;stroke-dasharray:none;stroke-opacity:1"
     d="m 49.560402,213.74502 c -8.480077,-4.19761 -10.279452,-13.87988 -3.743746,-20.14475 2.437163,-2.33616 5.047539,-3.2848 9.038825,-3.2848 8.035159,0 12.943897,4.75601 12.895454,12.49422 -0.01337,2.13602 -0.343089,4.14554 -0.836858,5.10039 -1.168979,2.26055 -5.136856,5.57938 -7.526493,6.29533 -3.192577,0.95652 -7.359055,0.76132 -9.827182,-0.46039 z"
     id="path3865"
     inkscape:connector-curvature="0" />
  <path
     style="fill:none;fill-opacity:1;stroke:none;stroke-width:1.04268289;stroke-miterlimit:4;stroke-dasharray:none;stroke-opacity:1"
     d="m 49.560402,213.74502 c -8.480077,-4.19761 -10.279452,-13.87988 -3.743746,-20.14475 2.437163,-2.33616 5.047539,-3.2848 9.038825,-3.2848 8.035159,0 12.943897,4.75601 12.895454,12.49422 -0.01337,2.13602 -0.343089,4.14554 -0.836858,5.10039 -1.168979,2.26055 -5.136856,5.57938 -7.526493,6.29533 -3.192577,0.95652 -7.359055,0.76132 -9.827182,-0.46039 z"
     id="path3867"
     inkscape:connector-curvature="0" />
  <path
     style="display:none;fill:none;fill-opacity:1;stroke:none;stroke-width:1.04268289;stroke-miterlimit:4;stroke-dasharray:none;stroke-opacity:1"
     d="m 49.560402,213.74502 c -8.480077,-4.19761 -10.279452,-13.87988 -3.743746,-20.14475 2.437163,-2.33616 5.047539,-3.2848 9.038825,-3.2848 8.035159,0 12.943897,4.75601 12.895454,12.49422 -0.01337,2.13602 -0.343089,4.14554 -0.836858,5.10039 -1.168979,2.26055 -5.136856,5.57938 -7.526493,6.29533 -3.192577,0.95652 -7.359055,0.76132 -9.827182,-0.46039 z"
     id="path3869"
     inkscape:connector-curvature="0" />
  <path
     style="fill:none;fill-opacity:1;stroke:none;stroke-width:1.04268289;stroke-miterlimit:4;stroke-dasharray:none;stroke-opacity:1"
     d="m 49.560402,213.74502 c -8.480077,-4.19761 -10.279452,-13.87988 -3.743746,-20.14475 2.437163,-2.33616 5.047539,-3.2848 9.038825,-3.2848 8.035159,0 12.943897,4.75601 12.895454,12.49422 -0.01337,2.13602 -0.343089,4.14554 -0.836858,5.10039 -1.168979,2.26055 -5.136856,5.57938 -7.526493,6.29533 -3.192577,0.95652 -7.359055,0.76132 -9.827182,-0.46039 z"
     id="path3871"
     inkscape:connector-curvature="0" />
  <path
     style="fill:none;fill-opacity:1;stroke:none;stroke-width:1.04268289;stroke-miterlimit:4;stroke-dasharray:none;stroke-opacity:1"
     d="m 49.560402,213.74502 c -8.480077,-4.19761 -10.279452,-13.87988 -3.743746,-20.14475 2.437163,-2.33616 5.047539,-3.2848 9.038825,-3.2848 8.035159,0 12.943897,4.75601 12.895454,12.49422 -0.01337,2.13602 -0.343089,4.14554 -0.836858,5.10039 -1.168979,2.26055 -5.136856,5.57938 -7.526493,6.29533 -3.192577,0.95652 -7.359055,0.76132 -9.827182,-0.46039 z"
     id="path3873"
     inkscape:connector-curvature="0" />
  <path
     style="fill:none;fill-opacity:1;stroke:none;stroke-width:1.04268289;stroke-miterlimit:4;stroke-dasharray:none;stroke-opacity:1"
     d="m 49.560402,213.74502 c -8.480077,-4.19761 -10.279452,-13.87988 -3.743746,-20.14475 2.437163,-2.33616 5.047539,-3.2848 9.038825,-3.2848 8.035159,0 12.943897,4.75601 12.895454,12.49422 -0.01337,2.13602 -0.343089,4.14554 -0.836858,5.10039 -1.168979,2.26055 -5.136856,5.57938 -7.526493,6.29533 -3.192577,0.95652 -7.359055,0.76132 -9.827182,-0.46039 z"
     id="path3875"
     inkscape:connector-curvature="0" />
  <path
     style="fill:none;fill-opacity:1;stroke:none;stroke-width:1.04268289;stroke-miterlimit:4;stroke-dasharray:none;stroke-opacity:1"
     d="m 49.560402,213.74502 c -8.480077,-4.19761 -10.279452,-13.87988 -3.743746,-20.14475 2.437163,-2.33616 5.047539,-3.2848 9.038825,-3.2848 8.035159,0 12.943897,4.75601 12.895454,12.49422 -0.01337,2.13602 -0.343089,4.14554 -0.836858,5.10039 -1.168979,2.26055 -5.136856,5.57938 -7.526493,6.29533 -3.192577,0.95652 -7.359055,0.76132 -9.827182,-0.46039 z"
     id="path3877"
     inkscape:connector-curvature="0" />
  <path
     style="fill:none;fill-opacity:1;stroke:none;stroke-width:1.04268289;stroke-miterlimit:4;stroke-dasharray:none;stroke-opacity:1"
     d="m 47.973979,217.41403 c -3.448594,-1.75539 -6.752662,-4.98823 -8.272027,-8.0937 -1.163318,-2.37774 -1.393525,-3.54182 -1.378551,-6.9709 0.0295,-6.75633 2.897282,-11.438 8.814028,-14.38898 2.606176,-1.29984 3.64076,-1.51239 7.457381,-1.53213 5.351903,-0.0277 8.857425,1.37289 12.462105,4.97901 3.390639,3.39198 4.477218,6.11594 4.451569,11.15966 -0.03408,6.70072 -3.045821,11.52947 -8.993031,14.41858 -3.627028,1.76199 -11.467788,1.99301 -14.541474,0.42846 z m 11.482061,-2.80256 c 2.848739,-0.85734 5.272207,-2.7487 7.259959,-5.66591 1.244514,-1.82644 1.433688,-2.61186 1.433688,-5.95242 0,-6.16867 -2.006867,-9.57798 -7.038109,-11.95651 -4.894799,-2.31401 -12.146714,-1.37523 -15.822184,2.04824 -2.179476,2.03004 -3.83636,5.98804 -3.866968,9.23748 -0.08446,8.96633 8.848173,15.05353 18.033614,12.28912 z"
     id="path3879"
     inkscape:connector-curvature="0" />
  <path
     style="fill:none;fill-opacity:1;stroke:none;stroke-width:1.04268289;stroke-miterlimit:4;stroke-dasharray:none;stroke-opacity:1"
     d="M 6.6313975,174.41455 V 7.3246219 H 173.46066 340.28992 l 0.0202,70.7721001 c 0.0111,38.924658 0.0185,77.810208 0.0165,86.412348 -0.002,8.60213 -0.0111,51.94515 -0.0202,96.31783 l -0.0165,80.67759 -68.16539,-0.0115 -68.1654,-0.0115 2.31608,-1.05069 c 3.69423,-1.67588 6.59554,-4.38594 8.20559,-7.6647 1.2396,-2.52436 1.46919,-3.64365 1.46919,-7.16263 0,-3.50541 -0.23118,-4.64149 -1.44922,-7.12181 -1.66889,-3.39839 -4.67282,-6.32612 -8.13179,-7.9255 -1.93107,-0.8929 -3.39384,-1.11303 -7.36259,-1.10801 -4.49144,0.006 -5.21028,0.14836 -7.7177,1.53174 -3.44384,1.90002 -6.08854,4.78439 -7.7855,8.49104 -1.13274,2.47422 -1.27546,3.38729 -1.06918,6.84 0.38291,6.40932 3.24009,10.79267 8.8681,13.60501 l 3.17874,1.58844 -20.02458,-0.0115 -20.02457,-0.0115 2.31608,-1.05068 c 3.69422,-1.67588 6.59553,-4.38594 8.20558,-7.6647 1.92376,-3.9176 2.07678,-9.9761 0.34712,-13.74321 -1.58496,-3.45195 -4.51421,-6.4604 -7.91771,-8.13179 -2.60255,-1.27806 -3.536,-1.44848 -7.90382,-1.44295 -4.49143,0.006 -5.21027,0.14836 -7.7177,1.53174 -3.44384,1.90002 -6.08853,4.78438 -7.7855,8.49103 -1.13274,2.47423 -1.27546,3.38729 -1.06918,6.84001 0.38292,6.40932 3.2401,10.79267 8.8681,13.60501 l 3.17875,1.58853 H 75.792407 6.6313975 Z M 107.9179,302.89341 c 2.65349,-0.73688 7.05315,-4.41073 8.94326,-7.46791 1.3303,-2.15172 1.57187,-3.12418 1.76154,-7.09127 0.19495,-4.07757 0.0715,-4.92158 -1.0917,-7.46229 -1.60043,-3.4958 -4.55244,-6.5403 -7.97486,-8.22472 -2.19709,-1.08134 -3.31693,-1.26316 -7.77993,-1.26316 -6.036617,0 -8.148587,0.82237 -11.998073,4.67186 -3.692375,3.69237 -4.161718,4.96283 -4.162677,11.26793 -0.001,5.21944 0.08244,5.64695 1.56319,8.02947 1.894247,3.04783 5.702527,6.36297 8.424372,7.33347 2.392744,0.85316 9.554008,0.97331 12.314878,0.20662 z m 143.0778,-0.92904 c 3.40029,-1.74697 5.70132,-4.04596 7.29238,-7.28594 1.24796,-2.54129 1.4537,-3.59153 1.44833,-7.39345 -0.005,-3.60368 -0.2284,-4.84966 -1.1956,-6.6706 -1.73331,-3.26333 -4.35784,-5.95639 -7.50269,-7.69858 -2.54216,-1.40831 -3.18506,-1.53174 -7.97838,-1.53174 -4.80447,0 -5.43242,0.12131 -8.00541,1.54646 -3.05693,1.69319 -6.20592,4.95203 -7.71186,7.98086 -1.47395,2.96452 -1.3506,10.56668 0.21951,13.52755 1.84652,3.48211 4.10175,5.70298 7.57987,7.46437 3.10424,1.57204 3.42231,1.62529 8.43923,1.4128 4.01502,-0.17006 5.7194,-0.48078 7.41462,-1.35173 z m -96.12452,-6.76935 c 2.96483,-1.31149 6.86736,-4.88121 8.33693,-7.62594 1.54496,-2.88557 1.63964,-11.50851 0.15907,-14.48698 -3.59636,-7.23478 -13.65912,-11.12949 -21.29213,-8.24095 -8.14168,3.08104 -12.89545,11.71078 -10.66511,19.3609 1.71589,5.88558 5.0828,9.43695 10.93408,11.53315 3.39894,1.21766 9.11,0.97139 12.52716,-0.54018 z m 49.42084,0.0472 c 3.075,-1.36022 6.38021,-4.35161 8.16776,-7.39225 1.27259,-2.16469 1.40484,-2.88042 1.40484,-7.60306 0,-6.02545 -0.65186,-7.82071 -4.09806,-11.28632 -4.57881,-4.60461 -12.28135,-6.34548 -18.18755,-4.11061 -3.95519,1.49662 -8.22016,5.40585 -9.81901,9.00002 -4.0336,9.0674 1.43721,19.78598 11.3732,22.28271 2.98015,0.74886 8.43729,0.31337 11.15882,-0.89049 z M 64.042768,262.41764 c 3.432757,-1.54164 6.454452,-4.47614 8.124929,-7.89047 2.972053,-6.07466 1.471226,-14.04411 -3.488702,-18.52511 -3.886825,-3.51151 -5.903472,-4.23995 -11.738149,-4.23995 -4.662554,0 -5.529544,0.15524 -8.205313,1.46919 -6.636737,3.25901 -10.310833,11.08513 -8.507923,18.12257 1.355132,5.2896 4.502949,8.99981 9.689953,11.42116 3.123071,1.45788 10.498681,1.27127 14.125205,-0.35739 z m 231.598092,0.56964 c 3.06686,-1.04498 7.71051,-5.21372 9.17304,-8.23491 1.56733,-3.23768 1.9281,-8.26214 0.85764,-11.9444 -0.67877,-2.33488 -1.50078,-3.6153 -3.84577,-5.99044 -4.29237,-4.34754 -6.02401,-5.05542 -12.36664,-5.05542 -4.39509,0 -5.59761,0.18924 -7.66105,1.20561 -9.3724,4.6165 -12.19397,16.50417 -5.88,24.77333 1.88232,2.4652 4.37796,4.25378 7.48425,5.36381 2.66758,0.95326 9.28231,0.88971 12.23853,-0.11758 z M 99.353902,258.06965 c -4.456463,-0.52026 -7.948116,-2.08049 -10.802716,-4.82714 -6.417119,-6.17446 -6.45365,-16.00606 -0.08246,-22.1891 3.646413,-3.53872 6.24186,-4.50471 12.103354,-4.50471 3.28078,0 4.65163,-0.15332 3.91006,-0.43731 -1.92796,-0.73834 -8.748302,-0.0953 -11.371875,1.07216 -3.468651,1.54352 -6.4411,4.45672 -8.258736,8.09413 -3.658378,7.32107 -0.978443,16.41782 6.050251,20.53691 3.157097,1.85019 6.209771,2.73323 9.31041,2.69321 2.47258,-0.0319 2.42842,-0.0544 -0.858288,-0.43815 z m 149.088518,-1.03286 c 3.19172,-1.37304 7.02427,-5.28837 8.55443,-8.73917 0.76943,-1.73523 1.09114,-3.54081 1.0927,-6.1327 0.007,-10.98748 -10.31957,-18.53338 -21.45727,-15.68003 -7.56651,1.93845 -12.1894,7.85857 -12.26295,15.70405 -0.0691,7.3676 4.36091,13.21581 11.91297,15.72685 2.92206,0.97158 8.8553,0.54269 12.16012,-0.879 z m -141.28459,0.007 c 3.2564,-1.47779 5.19221,-2.97724 6.91626,-5.35723 2.07735,-2.8677 1.92694,-3.59556 -0.17669,-0.85503 -2.38704,3.10972 -5.10974,5.16218 -8.31798,6.27032 -1.51829,0.52443 -2.29132,0.95601 -1.71784,0.95907 0.57347,0.003 2.05679,-0.45464 3.29625,-1.01713 z m -5.76655,-1.39797 c -0.49845,-0.13049 -1.436861,-0.13522 -2.085363,-0.0105 -0.648501,0.1247 -0.240682,0.23146 0.906273,0.23725 1.14695,0.006 1.67754,-0.0962 1.17909,-0.22673 z m -5.657876,-0.97305 c -2.911587,-0.89691 -6.783893,-4.1953 -8.060856,-6.86617 -0.517702,-1.08279 -1.116046,-3.49364 -1.329655,-5.35744 l -0.388379,-3.38872 0.119575,3.38872 c 0.138901,3.93646 1.280681,6.65813 3.886241,9.26369 1.938665,1.93867 5.429333,3.76249 7.123807,3.72209 0.573476,-0.0137 -0.03436,-0.35665 -1.350733,-0.76215 z m 10.734876,-0.21496 c 2.18875,-1.05166 3.64719,-2.2091 4.95275,-3.93054 0.4301,-0.56712 -0.36969,-0.0323 -1.77732,1.18855 -1.40763,1.22082 -3.63637,2.55146 -4.95274,2.95697 -1.31638,0.4055 -1.92421,0.74847 -1.35074,0.76215 0.57348,0.0137 1.9811,-0.42604 3.12805,-0.97713 z m 8.06713,-12.04611 c 0.0194,-3.39396 -1.27992,-6.75676 -3.55251,-9.19389 -1.87825,-2.01424 -5.14049,-4.1321 -5.62247,-3.65013 -0.12591,0.12592 0.48853,0.52612 1.36544,0.88935 2.20907,0.91503 5.93628,5.20915 6.68209,7.69846 0.84206,2.81054 0.77898,6.03149 -0.16224,8.28414 -1.10054,2.63398 -0.89608,2.94572 0.2892,0.44093 0.54275,-1.14695 0.99296,-3.15794 1.00049,-4.46886 z m 1.93382,3.5891 c -0.16642,-0.41589 -0.28996,-0.29236 -0.31497,0.31498 -0.0226,0.54958 0.10058,0.8575 0.27382,0.68426 0.17324,-0.17324 0.19175,-0.6229 0.0411,-0.99924 z m 0.57686,-4.72466 c -0.2599,-3.98013 -1.35432,-6.77311 -3.78676,-9.66389 -1.36511,-1.62235 -5.78836,-4.80333 -6.67917,-4.80333 -0.27025,0 0.90864,0.93488 2.61976,2.07753 4.97103,3.31953 7.36896,7.58104 7.41164,13.17171 0.0126,1.64874 0.17104,2.99771 0.35211,2.99771 0.18108,0 0.21816,-1.70088 0.0824,-3.77973 z M 89.942255,233.4123 c 3.196527,-3.31378 5.453847,-4.23749 10.380825,-4.24787 2.35488,-0.005 3.87981,-0.16849 3.38871,-0.36339 -1.3486,-0.53522 -5.351602,-0.48666 -7.427661,0.0901 -3.07837,0.85521 -6.678129,3.48857 -8.330494,6.09407 -0.856345,1.35033 -1.547816,2.81976 -1.536592,3.26541 0.01121,0.44566 0.375085,-0.0108 0.808575,-1.01441 0.433495,-1.00359 1.655978,-2.72434 2.716637,-3.8239 z m 80.520695,0.35057 c -0.35843,-0.14462 -0.94494,-0.14462 -1.30336,0 -0.35842,0.14463 -0.0652,0.26296 0.65168,0.26296 0.71684,0 1.0101,-0.11833 0.65168,-0.26296 z m 7.0381,-1.60195 c -1.362,-0.1074 -3.59073,-0.1074 -4.95274,0 -1.362,0.10739 -0.24764,0.19526 2.47637,0.19526 2.72401,0 3.83838,-0.0879 2.47637,-0.19526 z m -8.59496,-0.50513 c -0.64122,-0.12374 -1.81424,-0.12695 -2.60671,-0.007 -0.79247,0.11984 -0.26784,0.22108 1.16585,0.225 1.43369,0.004 2.08208,-0.0941 1.44086,-0.21788 z m 15.1189,0 c -0.64122,-0.12374 -1.81424,-0.12695 -2.60671,-0.007 -0.79247,0.11984 -0.26784,0.22108 1.16585,0.225 1.43369,0.004 2.08208,-0.0941 1.44086,-0.21788 z m -19.80822,-0.49632 c -0.35296,-0.1428 -1.05678,-0.15149 -1.56403,-0.0193 -0.50724,0.13218 -0.21845,0.24902 0.64176,0.25965 0.86021,0.0106 1.27523,-0.0975 0.92227,-0.24033 z m 23.46036,0 c -0.35296,-0.1428 -1.05677,-0.15149 -1.56402,-0.0193 -0.50725,0.13218 -0.21846,0.24902 0.64176,0.25965 0.86021,0.0106 1.27523,-0.0975 0.92226,-0.24033 z m -27.25001,-0.70071 c -0.71684,-0.22957 -1.77256,-0.41741 -2.34603,-0.41741 -0.82564,0 -0.77137,0.0869 0.26067,0.41741 0.71684,0.22957 1.77256,0.41741 2.34603,0.41741 0.82564,0 0.77137,-0.0869 -0.26067,-0.41741 z m 29.8468,0.17607 c -0.35842,-0.14463 -0.94493,-0.14463 -1.30335,0 -0.35843,0.14462 -0.0652,0.26296 0.65167,0.26296 0.71685,0 1.0101,-0.11834 0.65168,-0.26296 z m 7.11787,-1.72357 c 20.58589,-6.72715 37.64065,-22.70318 45.38725,-42.51645 1.15797,-2.9617 2.09811,-5.69585 2.08921,-6.07588 -0.009,-0.38003 -0.934,1.71937 -2.05577,4.66533 -8.13163,21.35499 -25.11357,37.17713 -47.19481,43.9716 -2.58064,0.79407 -4.30267,1.45707 -3.82674,1.47333 0.47594,0.0163 2.99632,-0.66681 5.60086,-1.51793 z m -42.66214,0.19876 c -1.26981,-0.39837 -2.4099,-0.62316 -2.53354,-0.49952 -0.26643,0.26643 2.9347,1.23487 4.06028,1.22835 0.43011,-0.003 -0.25693,-0.33046 -1.52674,-0.72883 z m -12.19963,-4.93979 c -18.07198,-9.23182 -30.9904,-24.63712 -36.91461,-44.02092 -0.78872,-2.58064 -1.44734,-4.30267 -1.4636,-3.82674 -0.0537,1.57215 3.06868,10.3842 5.30225,14.96406 3.64347,7.4708 7.94638,13.42383 14.18287,19.62182 3.17371,3.15412 7.5299,6.93886 9.68044,8.41053 3.94581,2.70024 11.80917,6.97982 12.77286,6.95155 0.28674,-0.008 -1.31536,-0.95355 -3.56021,-2.1003 z m 70.81326,0.55377 c 0.17721,-0.28674 0.0738,-0.52134 -0.2299,-0.52134 -0.30366,0 -0.55211,0.2346 -0.55211,0.52134 0,0.28674 0.10345,0.52134 0.2299,0.52134 0.12644,0 0.37489,-0.2346 0.55211,-0.52134 z m -77.41921,-1.04268 c 0,-0.28674 -0.24845,-0.52134 -0.55211,-0.52134 -0.30366,0 -0.40711,0.2346 -0.2299,0.52134 0.17722,0.28674 0.42567,0.52134 0.55211,0.52134 0.12645,0 0.2299,-0.2346 0.2299,-0.52134 z m 80.02592,-0.52134 c 0.17721,-0.28674 0.0738,-0.52134 -0.22991,-0.52134 -0.30366,0 -0.55211,0.2346 -0.55211,0.52134 0,0.28674 0.10346,0.52134 0.2299,0.52134 0.12645,0 0.3749,-0.2346 0.55212,-0.52134 z m 1.56402,-1.04268 c 0.17721,-0.28674 0.0738,-0.52135 -0.2299,-0.52135 -0.30366,0 -0.55211,0.23461 -0.55211,0.52135 0,0.28673 0.10345,0.52134 0.2299,0.52134 0.12645,0 0.3749,-0.23461 0.55211,-0.52134 z m 1.8346,-1.31529 c 0.55094,-0.66385 0.51869,-0.74014 -0.19684,-0.46556 -0.47066,0.1806 -0.85575,0.53788 -0.85575,0.79394 0,0.67043 0.30179,0.57627 1.05259,-0.32838 z M 131.232,220.60905 c 0,-0.25606 -0.38509,-0.61334 -0.85575,-0.79395 -0.71553,-0.27457 -0.74778,-0.19828 -0.19684,0.46557 0.7508,0.90465 1.05259,0.9988 1.05259,0.32838 z m 90.50227,-1.69365 c 0.98963,-1.11257 0.98899,-1.11398 -0.17986,-0.39594 -0.64516,0.39633 -1.17302,0.89877 -1.17302,1.11654 0,0.62859 0.29035,0.47394 1.35288,-0.7206 z m -92.58763,0.12963 c 0,-0.25607 -0.38509,-0.61334 -0.85575,-0.79395 -0.71554,-0.27458 -0.74779,-0.19829 -0.19684,0.46556 0.7508,0.90466 1.05259,0.99881 1.05259,0.32839 z m -75.348556,-0.53291 c -4.168152,-0.27317 -5.016676,-0.50733 -7.41471,-2.04614 -4.598883,-2.9511 -7.191393,-6.53498 -7.943454,-10.98102 -0.373998,-2.211 -0.409752,-2.2553 -0.461623,-0.57193 -0.08382,2.72007 2.045023,6.71988 5.079765,9.54419 3.877538,3.60867 6.206257,4.52484 11.276077,4.43625 l 4.170732,-0.0729 z m 9.551363,-1.39131 c 2.545616,-1.26853 6.885606,-5.45328 6.885606,-6.6393 0,-0.29744 -0.64516,0.31704 -1.433689,1.36552 -1.8683,2.48421 -5.351497,5.00555 -8.103288,5.86563 -1.206264,0.37702 -1.711407,0.70119 -1.122547,0.72037 0.58886,0.0192 2.28712,-0.57131 3.773918,-1.31222 z m 231.395853,0.0893 c 7.1034,-3.30746 10.8042,-10.20992 9.45476,-17.63436 -0.64438,-3.54532 -1.93162,-5.97314 -4.56126,-8.60278 -3.60854,-3.60853 -6.18379,-4.56757 -12.26504,-4.56757 -4.41271,0 -5.55149,0.18065 -7.41462,1.17622 -6.74612,3.6048 -10.23185,10.58211 -8.91062,17.8362 0.66243,3.63697 1.89466,6.02074 4.41364,8.53825 3.53815,3.53608 5.91078,4.4058 12.17227,4.46192 3.63484,0.0326 4.91305,-0.18454 7.11087,-1.20788 z m -172.6979,-4.67845 c -2.7881,-2.75656 -5.20085,-5.01193 -5.36167,-5.01193 -0.16082,0 2.03728,2.33844 4.88465,5.19654 2.84738,2.85811 5.26013,5.11348 5.36167,5.01194 0.10154,-0.10154 -2.09655,-2.43999 -4.88465,-5.19655 z m 105.63277,0.81428 c 0,-0.38233 -4.42607,3.73976 -4.62581,4.30811 -0.10692,0.30424 0.89015,-0.49274 2.2157,-1.77107 1.32556,-1.27834 2.41011,-2.42001 2.41011,-2.53704 z m -171.391,1.61677 c -0.931898,-0.11565 -2.456822,-0.11565 -3.38872,0 -0.931897,0.11565 -0.169436,0.21027 1.69436,0.21027 1.863796,0 2.626258,-0.0946 1.69436,-0.21027 z m 4.9192,-0.93306 c 1.038398,-0.43387 1.740342,-0.93651 1.55988,-1.11698 -0.180468,-0.18046 -0.627043,-0.0916 -0.992394,0.19752 -0.365356,0.28909 -1.368089,0.77321 -2.228302,1.07581 -0.860214,0.30261 -1.263237,0.56871 -0.895602,0.59135 0.367629,0.0226 1.518021,-0.31383 2.556418,-0.7477 z m -12.869657,-0.77517 c 0,-0.28674 -0.24845,-0.52134 -0.55211,-0.52134 -0.30366,0 -0.407116,0.2346 -0.229902,0.52134 0.177213,0.28674 0.425662,0.52134 0.552109,0.52134 0.126447,0 0.229903,-0.2346 0.229903,-0.52134 z m -1.803258,-1.52934 c -0.189004,-0.30581 -0.593128,-0.55602 -0.898053,-0.55602 -0.345698,0 -0.306148,0.29913 0.10506,0.79461 0.715041,0.86157 1.354097,0.6693 0.792993,-0.23859 z M 233.41492,207.6284 c 0,-0.52805 -1.03725,0.37361 -2.87368,2.49803 l -2.028,2.34604 2.45084,-2.32425 c 1.34797,-1.27834 2.45084,-2.41225 2.45084,-2.51982 z m -168.13261,3.54072 c 0.177214,-0.28674 0.0876,-0.52135 -0.199137,-0.52135 -0.286738,0 -0.666332,0.23461 -0.843546,0.52135 -0.177215,0.28673 -0.0876,0.52134 0.199136,0.52134 0.286738,0 0.666332,-0.23461 0.843547,-0.52134 z m -20.592987,-1.04269 c 0,-0.28674 -0.24845,-0.52134 -0.55211,-0.52134 -0.30366,0 -0.407116,0.2346 -0.229903,0.52134 0.177214,0.28674 0.425663,0.52134 0.55211,0.52134 0.126447,0 0.229903,-0.2346 0.229903,-0.52134 z m 26.477764,-2.15664 c -0.130153,-0.39045 -0.366472,-0.15413 -0.550824,0.55083 -0.226768,0.86717 -0.15892,1.07072 0.227952,0.68385 0.302951,-0.30296 0.448244,-0.85856 0.322872,-1.23468 z m -27.520447,0.59262 c 0,-0.28674 -0.24845,-0.52134 -0.55211,-0.52134 -0.30366,0 -0.407116,0.2346 -0.229902,0.52134 0.177213,0.28674 0.425662,0.52134 0.552109,0.52134 0.126447,0 0.229903,-0.2346 0.229903,-0.52134 z m 24.33784,-2.70446 c -0.166423,-0.41589 -0.28996,-0.29236 -0.314974,0.31498 -0.02263,0.54958 0.100577,0.8575 0.273819,0.68426 0.173236,-0.17324 0.191754,-0.6229 0.04113,-0.99924 z m 48.12862,0.0978 c -0.30691,-0.57347 -0.82074,-1.04268 -1.14183,-1.04268 -0.32109,0 -0.15917,0.46921 0.35982,1.04268 0.51899,0.57348 1.03281,1.04268 1.14182,1.04268 0.10902,0 -0.0529,-0.4692 -0.35981,-1.04268 z m 118.60518,0 c 0.51899,-0.57347 0.72908,-1.04268 0.46687,-1.04268 -0.2622,0 -0.76976,0.46921 -1.1279,1.04268 -0.35814,0.57348 -0.56823,1.04268 -0.46687,1.04268 0.10136,0 0.60891,-0.4692 1.1279,-1.04268 z M 72.283774,202.34976 c 0.05062,-3.18044 -0.282969,-2.5067 -0.623801,1.25991 -0.170895,1.88863 -0.110649,2.71491 0.152055,2.08537 0.239311,-0.57348 0.451596,-2.07885 0.471746,-3.34528 z m -30.366364,2.46552 c -0.166426,-0.41589 -0.289962,-0.29236 -0.314978,0.31498 -0.02264,0.54957 0.100582,0.85749 0.273819,0.68426 0.173237,-0.17324 0.191759,-0.6229 0.04116,-0.99924 z m 72.63167,-0.94493 c 0,-0.28674 -0.24845,-0.52135 -0.55212,-0.52135 -0.30366,0 -0.40711,0.23461 -0.2299,0.52135 0.17722,0.28673 0.42567,0.52134 0.55211,0.52134 0.12645,0 0.22991,-0.23461 0.22991,-0.52134 z m 121.99389,-0.26068 c 0.37409,-0.45074 0.42476,-0.78201 0.11961,-0.78201 -0.29116,0 -0.66443,0.35191 -0.82948,0.78201 -0.16505,0.43011 -0.21887,0.78202 -0.11961,0.78202 0.0993,0 0.47253,-0.35191 0.82948,-0.78202 z m -195.146902,-1.4011 c -0.166426,-0.41589 -0.289961,-0.29236 -0.314977,0.31498 -0.02264,0.54958 0.100581,0.8575 0.273819,0.68426 0.173237,-0.17324 0.191759,-0.6229 0.04116,-0.99924 z m 71.777512,-0.16292 c -0.16505,-0.43011 -0.53831,-0.78201 -0.82948,-0.78201 -0.30515,0 -0.25448,0.33126 0.11961,0.78201 0.35696,0.43011 0.73023,0.78201 0.82949,0.78201 0.0992,0 0.0455,-0.3519 -0.11962,-0.78201 z m 124.67275,-0.26067 c 0.17721,-0.28674 0.0738,-0.52134 -0.2299,-0.52134 -0.30367,0 -0.55212,0.2346 -0.55212,0.52134 0,0.28674 0.10346,0.52134 0.22991,0.52134 0.12644,0 0.37489,-0.2346 0.55211,-0.52134 z M 38.280608,199.05402 c -0.124701,-0.64851 -0.231464,-0.24069 -0.237251,0.90626 -0.0058,1.14696 0.09624,1.67755 0.22673,1.1791 0.130488,-0.49845 0.135223,-1.43686 0.01052,-2.08536 z m 29.709022,0.26451 c -0.13218,-0.50725 -0.249024,-0.21846 -0.259648,0.64175 -0.01064,0.86022 0.09752,1.27524 0.240333,0.92227 0.142806,-0.35296 0.151496,-1.05677 0.01929,-1.56402 z m -24.732237,-2.48967 c 0.446335,-0.85835 1.420318,-2.1294 2.164407,-2.82454 0.744089,-0.69515 1.352888,-1.4985 1.352888,-1.78524 0,-0.28674 -0.609731,0.0474 -1.354958,0.74256 -1.577528,1.4715 -3.878667,5.76265 -3.813645,7.11165 0.02994,0.62113 0.17673,0.49599 0.4423,-0.37705 0.218618,-0.71871 0.762672,-2.00903 1.209008,-2.86738 z m 195.631617,3.39209 c 0.17721,-0.28673 0.0738,-0.52134 -0.2299,-0.52134 -0.30366,0 -0.55211,0.23461 -0.55211,0.52134 0,0.28674 0.10345,0.52135 0.2299,0.52135 0.12644,0 0.37489,-0.23461 0.55211,-0.52135 z M 70.849167,195.87786 c -0.559884,-1.26572 -1.885129,-3.26114 -2.944984,-4.43427 -2.026241,-2.24281 -7.499169,-5.32328 -9.352245,-5.26398 -0.644217,0.0206 -0.237169,0.30451 0.995616,0.69439 3.266006,1.0329 5.095419,2.14353 7.538435,4.57653 2.260724,2.25146 4.105001,5.49882 4.240774,7.46707 0.05874,0.85152 0.114867,0.87942 0.306153,0.15212 0.128823,-0.48981 -0.223864,-1.92615 -0.783749,-3.19186 z m 39.529173,1.73639 c 0,-0.28674 -0.24845,-0.52134 -0.55211,-0.52134 -0.30366,0 -0.40711,0.2346 -0.2299,0.52134 0.17722,0.28674 0.42567,0.52134 0.55211,0.52134 0.12645,0 0.2299,-0.2346 0.2299,-0.52134 z m 130.07469,0 c 0.17722,-0.28674 0.0738,-0.52134 -0.2299,-0.52134 -0.30366,0 -0.55211,0.2346 -0.55211,0.52134 0,0.28674 0.10346,0.52134 0.2299,0.52134 0.12645,0 0.3749,-0.2346 0.55211,-0.52134 z M 42.263157,191.5155 c 2.490552,-2.75675 6.771357,-4.76689 11.414045,-5.35971 l 3.784986,-0.4833 -3.64939,0.19666 c -4.504279,0.24274 -7.804287,1.60405 -10.976314,4.52792 -2.309654,2.12896 -4.415863,5.39268 -4.391809,6.8054 0.0063,0.36985 0.452166,-0.29811 0.990819,-1.48435 0.538653,-1.18623 1.811102,-3.07741 2.827663,-4.20262 z m 24.322506,3.78348 c 0,-0.12645 -0.234603,-0.3749 -0.521341,-0.55211 -0.286738,-0.17721 -0.521342,-0.0738 -0.521342,0.2299 0,0.30366 0.234604,0.55211 0.521342,0.55211 0.286738,0 0.521341,-0.10345 0.521341,-0.2299 z M 180.4715,193.68939 c 6.2628,-1.63126 14.05092,-7.09414 16.85278,-11.82119 0.64718,-1.09185 4.22125,-3.02127 15.87289,-8.56877 8.27069,-3.93779 15.30172,-7.47783 15.6245,-7.86675 0.34888,-0.42037 0.39498,-0.8865 0.11369,-1.14944 -0.26025,-0.24326 -7.27866,-3.66276 -15.59646,-7.59887 -14.84034,-7.02268 -15.15657,-7.20486 -16.9029,-9.73786 -3.19643,-4.63633 -9.17552,-8.80295 -15.15522,-10.56115 -3.40116,-1.00003 -10.74476,-1.12794 -14.38423,-0.25054 -9.96746,2.40293 -18.59326,11.03653 -21.34051,21.35977 -0.98765,3.71126 -0.97591,10.93832 0.0241,14.8554 2.62106,10.26656 10.73391,18.55176 20.89873,21.34272 3.4956,0.95979 10.30118,0.95817 13.99261,-0.003 z M 63.978956,192.69227 c 0,-0.12644 -0.234604,-0.37489 -0.521341,-0.55211 -0.286738,-0.17721 -0.521342,-0.0738 -0.521342,0.2299 0,0.30366 0.234604,0.55211 0.521342,0.55211 0.286737,0 0.521341,-0.10345 0.521341,-0.2299 z m -3.388719,-1.88399 c -1.528506,-0.7233 -3.12948,-0.96841 -5.995427,-0.91789 l -3.910061,0.0689 4.431402,0.32553 c 2.437272,0.17904 4.90061,0.60394 5.474086,0.94423 0.573475,0.34029 1.277286,0.60685 1.564024,0.59236 0.286738,-0.0145 -0.417073,-0.47042 -1.564024,-1.01316 z M 246.67238,172.71193 c 0.19476,-1.6848 -0.0342,-1.14443 -0.72143,1.70262 -0.55371,2.29391 -0.997,4.40534 -0.98509,4.69208 0.0472,1.13614 1.43871,-4.07813 1.70652,-6.3947 z m -142.7262,0.79028 c -0.14463,-0.35843 -0.26296,-0.0652 -0.26296,0.65167 0,0.71685 0.11833,1.0101 0.26296,0.65168 0.14462,-0.35842 0.14462,-0.94493 0,-1.30335 z m -0.50533,-2.85746 c -0.13218,-0.50725 -0.24903,-0.21846 -0.25965,0.64175 -0.0106,0.86022 0.0975,1.27524 0.24033,0.92227 0.14281,-0.35296 0.1515,-1.05677 0.0193,-1.56402 z m 143.89688,-3.91998 c -0.12426,-0.64516 -0.22594,-0.1173 -0.22594,1.17302 0,1.29032 0.10168,1.81817 0.22594,1.17301 0.12426,-0.64516 0.12426,-1.70087 0,-2.34603 z m -144.41158,-0.52134 c -0.12426,-0.64516 -0.22593,-0.11731 -0.22593,1.17301 0,1.29032 0.10167,1.81818 0.22593,1.17302 0.12427,-0.64516 0.12427,-1.70087 0,-2.34603 z m 144.95026,-9.64482 c -0.10346,-1.64874 -0.18811,-0.29977 -0.18811,2.99771 0,3.29749 0.0847,4.64646 0.18811,2.99772 0.10346,-1.64875 0.10346,-4.34669 0,-5.99543 z m -145.45457,0.27815 c -0.10564,-1.51499 -0.19319,-0.40849 -0.19455,2.45889 -0.002,2.86738 0.0851,4.10691 0.19208,2.75452 0.10701,-1.35239 0.10812,-3.69843 0.003,-5.21341 z m 0.51049,-6.52708 c -0.11983,-0.79247 -0.22108,-0.26784 -0.225,1.16585 -0.004,1.43369 0.0941,2.08208 0.21788,1.44086 0.12375,-0.64122 0.12695,-1.81424 0.007,-2.60671 z m 144.4062,-0.26176 c -0.1247,-0.6485 -0.23147,-0.24068 -0.23726,0.90627 -0.006,1.14695 0.0962,1.67755 0.22673,1.1791 0.13049,-0.49845 0.13523,-1.43687 0.0105,-2.08537 z M 107.00704,134.53193 c 3.42113,-9.44073 8.65973,-17.76562 15.85968,-25.20328 7.95583,-8.21851 15.87228,-13.588711 25.88229,-17.557517 2.83874,-1.125519 4.80944,-2.04552 4.37933,-2.044451 -1.19026,0.0031 -9.7652,3.680874 -13.66007,5.859013 -14.88353,8.323345 -27.18077,22.848885 -32.97166,38.946235 -1.56334,4.34573 -3.42756,11.68462 -3.37698,13.29421 0.018,0.57348 0.58125,-1.30335 1.25163,-4.17073 0.67037,-2.86738 1.85648,-6.97294 2.63578,-9.12348 z m 139.8027,12.13111 c -0.13218,-0.50725 -0.24902,-0.21845 -0.25964,0.64176 -0.0106,0.86021 0.0975,1.27523 0.24033,0.92227 0.1428,-0.35297 0.1515,-1.05678 0.0193,-1.56403 z m -0.53735,-2.8773 c -0.14462,-0.35842 -0.26296,-0.0652 -0.26296,0.65168 0,0.71685 0.11834,1.0101 0.26296,0.65168 0.14463,-0.35842 0.14463,-0.94493 0,-1.30336 z m -0.51048,-2.05278 c -0.16642,-0.41589 -0.28996,-0.29236 -0.31497,0.31498 -0.0226,0.54958 0.10058,0.8575 0.27382,0.68426 0.17323,-0.17323 0.19175,-0.6229 0.0411,-0.99924 z m -0.65404,-2.73238 c -0.19176,-0.76404 -0.4492,-1.28861 -0.57209,-1.16572 -0.12289,0.12289 -0.0665,0.84855 0.12522,1.61258 0.19176,0.76403 0.4492,1.2886 0.57209,1.16572 0.12289,-0.12289 0.0665,-0.84855 -0.12522,-1.61258 z m -2.01892,-5.94989 c -1.43036,-4.05407 -6.18001,-12.71414 -9.30251,-16.96135 -6.22627,-8.46891 -16.42173,-17.170548 -25.46978,-21.737994 -3.6478,-1.841399 -10.65696,-4.660172 -11.53954,-4.64069 -0.35096,0.0078 1.61997,0.909579 4.37984,2.004078 14.0608,5.576143 25.47979,14.669706 33.80936,26.924236 2.6829,3.94711 6.7686,11.80011 7.81217,15.01555 0.35521,1.09447 0.74227,1.89353 0.86012,1.77568 0.11785,-0.11785 -0.1295,-1.18863 -0.54966,-2.37951 z m -133.75329,-9.98827 c 0,-0.28674 -0.10345,-0.52134 -0.2299,-0.52134 -0.12645,0 -0.3749,0.2346 -0.55211,0.52134 -0.17722,0.28674 -0.0738,0.52134 0.2299,0.52134 0.30366,0 0.55211,-0.2346 0.55211,-0.52134 z m 132.42073,0.29144 c 0,-0.12644 -0.23461,-0.37489 -0.52134,-0.55211 -0.28674,-0.17721 -0.52135,-0.0738 -0.52135,0.2299 0,0.30366 0.23461,0.55211 0.52135,0.55211 0.28673,0 0.52134,-0.10345 0.52134,-0.2299 z m -130.33536,-3.94083 c 0,-0.28674 -0.10346,-0.52134 -0.2299,-0.52134 -0.12645,0 -0.3749,0.2346 -0.55212,0.52134 -0.17721,0.28674 -0.0738,0.52134 0.22991,0.52134 0.30366,0 0.55211,-0.2346 0.55211,-0.52134 z m 128.24999,0.29144 c 0,-0.12644 -0.2346,-0.37489 -0.52134,-0.55211 -0.28674,-0.17721 -0.52134,-0.0738 -0.52134,0.2299 0,0.30366 0.2346,0.55211 0.52134,0.55211 0.28674,0 0.52134,-0.10345 0.52134,-0.2299 z m -127.20731,-1.85546 c 0,-0.28674 -0.10346,-0.52134 -0.2299,-0.52134 -0.12645,0 -0.3749,0.2346 -0.55211,0.52134 -0.17722,0.28674 -0.0738,0.52134 0.2299,0.52134 0.30366,0 0.55211,-0.2346 0.55211,-0.52134 z m 126.16463,0.29144 c 0,-0.12645 -0.23461,-0.3749 -0.52134,-0.55211 -0.28674,-0.17722 -0.52134,-0.0738 -0.52134,0.2299 0,0.30366 0.2346,0.55211 0.52134,0.55211 0.28673,0 0.52134,-0.10346 0.52134,-0.2299 z m -125.12195,-1.85547 c 0,-0.28673 -0.10345,-0.52134 -0.2299,-0.52134 -0.12644,0 -0.37489,0.23461 -0.55211,0.52134 -0.17721,0.28674 -0.0738,0.52134 0.2299,0.52134 0.30366,0 0.55211,-0.2346 0.55211,-0.52134 z m 124.07927,0.29144 c 0,-0.12644 -0.23461,-0.37489 -0.52135,-0.55211 -0.28673,-0.17721 -0.52134,-0.0738 -0.52134,0.2299 0,0.30366 0.23461,0.55211 0.52134,0.55211 0.28674,0 0.52135,-0.10345 0.52135,-0.2299 z m -122.63623,-2.3768 c 0.35814,-0.57348 0.56824,-1.04269 0.46688,-1.04269 -0.10136,0 -0.60891,0.46921 -1.12791,1.04269 -0.51899,0.57347 -0.72908,1.04268 -0.46687,1.04268 0.2622,0 0.76976,-0.46921 1.1279,-1.04268 z m 121.59354,0.84584 c 0,-0.10825 -0.35727,-0.49334 -0.79394,-0.85575 -0.66385,-0.55094 -0.74014,-0.51869 -0.46557,0.19684 0.28043,0.73078 1.25951,1.24299 1.25951,0.65891 z m -1.56402,-2.06839 c 0,-0.0989 -0.50244,-0.62679 -1.11653,-1.17302 -1.11257,-0.98962 -1.11398,-0.98899 -0.39594,0.17987 0.61239,0.99687 1.51247,1.5879 1.51247,0.99315 z m -117.14927,-2.16619 c 1.85873,-2.32952 1.58397,-2.32951 -0.6739,2e-5 -0.97271,1.00358 -1.54659,1.82469 -1.27529,1.82468 0.2713,-1e-5 1.14844,-0.82113 1.94919,-1.8247 z m 110.9091,-4.67604 c -2.41586,-2.42847 -4.46971,-4.33814 -4.56413,-4.24372 -0.25832,0.25831 7.85816,8.51422 8.44675,8.59186 0.28041,0.037 -1.46677,-1.91968 -3.88262,-4.34814 z m -60.1296,2.63689 c 1.4146,-1.21575 1.46857,-1.4475 1.63922,-7.03811 0.16684,-5.465849 0.12042,-5.780953 -0.85171,-5.780953 -0.94002,0 -1.04592,0.441758 -1.23513,5.152543 -0.23799,5.92518 -0.70845,6.83831 -3.52327,6.83831 -2.89027,0 -3.16848,-0.58138 -3.16848,-6.62104 0,-5.022251 -0.0675,-5.369813 -1.04269,-5.369813 -0.97975,0 -1.04268,0.347562 -1.04268,5.758453 0,5.41879 0.0755,5.83393 1.27966,7.03811 1.80488,1.80488 5.85783,1.81636 7.94508,0.0225 z m 6.4155,-1.61022 v -2.86738 h 2.89108 c 2.37441,0 3.11976,-0.22869 4.17073,-1.27966 1.55344,-1.55344 1.6705,-3.856909 0.28308,-5.570308 -0.88089,-1.087847 -1.51639,-1.252074 -5.47409,-1.414608 l -4.4775,-0.183882 v 7.091608 7.09161 h 1.30335 c 1.23226,0 1.30335,-0.15641 1.30335,-2.86738 z m -52.66621,-1.03175 c 1.26046,-1.28431 2.17492,-2.45192 2.03215,-2.5947 -0.14277,-0.14277 -1.40964,0.90803 -2.81527,2.33511 -1.40562,1.42708 -2.32009,2.59469 -2.03215,2.59469 0.28795,0 1.55482,-1.0508 2.81527,-2.3351 z m 6.26681,-6.136697 c 3e-5,-0.645535 -0.23794,-0.474739 -2.11341,1.516897 l -1.79664,1.90791 1.95502,-1.5169 c 1.07525,-0.8343 1.95502,-1.69285 1.95503,-1.907907 z m 94.09925,0.648477 c -0.52058,-0.57523 -1.06767,-0.92471 -1.21576,-0.776623 -0.14809,0.148093 0.18283,0.611273 0.73537,1.029303 1.40975,1.06654 1.58896,0.97228 0.48039,-0.25268 z m -92.46871,-1.951831 c 0.64848,-0.826878 0.63004,-0.845318 -0.19684,-0.196837 -0.86842,0.681064 -1.14459,1.109185 -0.71551,1.109185 0.10826,0 0.51882,-0.410557 0.91235,-0.912348 z m 90.11511,0.117735 c -0.36271,-0.437035 -0.79519,-0.658882 -0.96108,-0.492991 -0.16589,0.165886 0.0435,0.519871 0.46529,0.786626 1.10367,0.697977 1.24788,0.612571 0.49579,-0.293635 z m -87.5749,-1.931706 c 0,-0.305146 -0.33127,-0.254477 -0.78202,0.119612 -0.4301,0.356957 -0.78201,0.730227 -0.78201,0.829485 0,0.09926 0.35191,0.04546 0.78201,-0.119611 0.43011,-0.165052 0.78202,-0.538317 0.78202,-0.829486 z m 85.48953,0.367682 c -0.3627,-0.437036 -0.79519,-0.658882 -0.96108,-0.492991 -0.16589,0.165885 0.0435,0.519871 0.4653,0.786626 1.10366,0.697977 1.24787,0.612571 0.49578,-0.293635 z m -83.92551,-1.290753 c 0,-0.286738 -0.10345,-0.521342 -0.2299,-0.521342 -0.12645,0 -0.3749,0.234604 -0.55211,0.521342 -0.17722,0.286738 -0.0738,0.521341 0.2299,0.521341 0.30366,0 0.55211,-0.234603 0.55211,-0.521341 z m 2.60671,-1.564025 c 0,-0.286737 -0.10346,-0.521341 -0.2299,-0.521341 -0.12645,0 -0.3749,0.234604 -0.55211,0.521341 -0.17722,0.286738 -0.0738,0.521342 0.2299,0.521342 0.30366,0 0.55211,-0.234604 0.55211,-0.521342 z m 77.15853,0.291441 c 0,-0.126446 -0.2346,-0.374897 -0.52134,-0.552111 -0.28674,-0.177215 -0.52134,-0.07376 -0.52134,0.229901 0,0.30366 0.2346,0.552111 0.52134,0.552111 0.28674,0 0.52134,-0.103455 0.52134,-0.229901 z m -73.50914,-2.376806 c 0,-0.286738 -0.10346,-0.521342 -0.2299,-0.521342 -0.12645,0 -0.3749,0.234604 -0.55211,0.521342 -0.17722,0.286737 -0.0738,0.521341 0.2299,0.521341 0.30366,0 0.55211,-0.234604 0.55211,-0.521341 z m 18.24695,-3.676766 c 2.15053,-0.564451 2.97164,-0.910914 1.82469,-0.769917 -2.08823,0.256708 -7.23751,1.710719 -6.25609,1.766539 0.28673,0.01632 2.28086,-0.432171 4.4314,-0.996622 z m 34.92987,0.226705 c -1.29032,-0.407147 -3.28445,-0.853702 -4.4314,-0.992342 -1.31057,-0.15842 -0.72947,0.113522 1.56403,0.731937 4.27592,1.152942 6.26988,1.33403 2.86737,0.260405 z M 165.5102,87.251827 c -0.50179,-0.131127 -1.3229,-0.131127 -1.82469,0 -0.50179,0.131133 -0.0912,0.238426 0.91234,0.238426 1.00359,0 1.41414,-0.107293 0.91235,-0.238426 z m 20.85366,0 c -0.50179,-0.131127 -1.3229,-0.131127 -1.8247,0 -0.50179,0.131133 -0.0912,0.238426 0.91235,0.238426 1.00358,0 1.41414,-0.107293 0.91235,-0.238426 z m -14.60919,-0.54244 c -1.08166,-0.112854 -2.72389,-0.110962 -3.64939,0.0042 -0.9255,0.11517 -0.0405,0.20751 1.96666,0.205195 2.00716,-0.0021 2.76439,-0.09654 1.68273,-0.209402 z m 10.17779,0.0031 c -0.9319,-0.115644 -2.45682,-0.115644 -3.38872,0 -0.9319,0.11565 -0.16944,0.210273 1.69436,0.210273 1.86379,0 2.62625,-0.09462 1.69436,-0.210273 z M 127.06127,45.121876 V 16.187426 H 70.235053 13.408836 v 28.630335 c 0,22.416463 0.141439,28.687403 0.651677,28.893291 0.358422,0.144626 25.93022,0.281478 56.826217,0.304114 l 56.17454,0.04116 z m 81.85061,-0.782012 V 15.144743 h -37.79726 -37.79725 v 29.195121 29.195121 h 37.79725 37.79726 z m 119.38719,0.487068 c 0,-18.432829 -0.18676,-28.535667 -0.53969,-29.195121 -0.52837,-0.987272 -1.7009,-1.008409 -55.93993,-1.008409 -42.39397,0 -55.54713,0.146874 -56.02587,0.62561 -0.47136,0.471363 -0.62561,7.669512 -0.62561,29.19512 v 28.569511 h 56.56555 56.56555 z"
     id="path3881"
     inkscape:connector-curvature="0" />
  <path
     style="fill:none;fill-opacity:1;stroke:none;stroke-width:1.04268289;stroke-miterlimit:4;stroke-dasharray:none;stroke-opacity:1"
     d="M 6.6313975,174.41455 V 7.3246219 H 173.46066 340.28992 V 174.41455 341.50449 l -68.16539,-0.0115 -68.1654,-0.0115 2.31608,-1.05069 c 3.69423,-1.67588 6.59554,-4.38594 8.20559,-7.6647 1.2396,-2.52436 1.46919,-3.64365 1.46919,-7.16263 0,-3.50541 -0.23118,-4.64149 -1.44922,-7.12181 -1.66889,-3.39839 -4.67282,-6.32612 -8.13179,-7.9255 -1.93107,-0.8929 -3.39384,-1.11303 -7.36259,-1.10801 -4.49144,0.006 -5.21028,0.14836 -7.7177,1.53174 -3.44384,1.90002 -6.08854,4.78439 -7.7855,8.49104 -1.13274,2.47422 -1.27546,3.38729 -1.06918,6.84 0.38291,6.40932 3.24009,10.79267 8.8681,13.60501 l 3.17874,1.58844 -20.02458,-0.0115 -20.02457,-0.0115 2.31608,-1.05068 c 3.69422,-1.67588 6.59553,-4.38594 8.20558,-7.6647 1.92376,-3.9176 2.07678,-9.9761 0.34712,-13.74321 -1.58496,-3.45195 -4.51421,-6.4604 -7.91771,-8.13179 -2.60255,-1.27806 -3.536,-1.44848 -7.90382,-1.44295 -4.49143,0.006 -5.21027,0.14836 -7.7177,1.53174 -3.44384,1.90002 -6.08853,4.78438 -7.7855,8.49103 -1.13274,2.47423 -1.27546,3.38729 -1.06918,6.84001 0.38292,6.40932 3.2401,10.79267 8.8681,13.60501 l 3.17875,1.58853 H 75.792407 6.6313975 Z M 107.9179,302.89341 c 2.65349,-0.73688 7.05315,-4.41073 8.94326,-7.46791 1.3303,-2.15172 1.57187,-3.12418 1.76154,-7.09127 0.19495,-4.07757 0.0715,-4.92158 -1.0917,-7.46229 -1.60043,-3.4958 -4.55244,-6.5403 -7.97486,-8.22472 -2.19709,-1.08134 -3.31693,-1.26316 -7.77993,-1.26316 -6.036617,0 -8.148587,0.82237 -11.998073,4.67186 -3.692375,3.69237 -4.161718,4.96283 -4.162677,11.26793 -0.001,5.21944 0.08244,5.64695 1.56319,8.02947 1.894247,3.04783 5.702527,6.36297 8.424372,7.33347 2.392744,0.85316 9.554008,0.97331 12.314878,0.20662 z m 143.0778,-0.92904 c 3.40029,-1.74697 5.70132,-4.04596 7.29238,-7.28594 1.24796,-2.54129 1.4537,-3.59153 1.44833,-7.39345 -0.005,-3.60368 -0.2284,-4.84966 -1.1956,-6.6706 -1.73331,-3.26333 -4.35784,-5.95639 -7.50269,-7.69858 -2.54216,-1.40831 -3.18506,-1.53174 -7.97838,-1.53174 -4.80447,0 -5.43242,0.12131 -8.00541,1.54646 -3.05693,1.69319 -6.20592,4.95203 -7.71186,7.98086 -1.47395,2.96452 -1.3506,10.56668 0.21951,13.52755 1.84652,3.48211 4.10175,5.70298 7.57987,7.46437 3.10424,1.57204 3.42231,1.62529 8.43923,1.4128 4.01502,-0.17006 5.7194,-0.48078 7.41462,-1.35173 z m -96.12452,-6.76935 c 2.96483,-1.31149 6.86736,-4.88121 8.33693,-7.62594 1.54496,-2.88557 1.63964,-11.50851 0.15907,-14.48698 -3.59636,-7.23478 -13.65912,-11.12949 -21.29213,-8.24095 -8.14168,3.08104 -12.89545,11.71078 -10.66511,19.3609 1.71589,5.88558 5.0828,9.43695 10.93408,11.53315 3.39894,1.21766 9.11,0.97139 12.52716,-0.54018 z m 49.42084,0.0472 c 3.075,-1.36022 6.38021,-4.35161 8.16776,-7.39225 1.27259,-2.16469 1.40484,-2.88042 1.40484,-7.60306 0,-6.02545 -0.65186,-7.82071 -4.09806,-11.28632 -4.57881,-4.60461 -12.28135,-6.34548 -18.18755,-4.11061 -3.95519,1.49662 -8.22016,5.40585 -9.81901,9.00002 -4.0336,9.0674 1.43721,19.78598 11.3732,22.28271 2.98015,0.74886 8.43729,0.31337 11.15882,-0.89049 z M 64.042768,262.41764 c 3.432757,-1.54164 6.454452,-4.47614 8.124929,-7.89047 2.972053,-6.07466 1.471226,-14.04411 -3.488702,-18.52511 -3.886825,-3.51151 -5.903472,-4.23995 -11.738149,-4.23995 -4.662554,0 -5.529544,0.15524 -8.205313,1.46919 -6.636737,3.25901 -10.310833,11.08513 -8.507923,18.12257 1.355132,5.2896 4.502949,8.99981 9.689953,11.42116 3.123071,1.45788 10.498681,1.27127 14.125205,-0.35739 z m 231.598092,0.56964 c 3.06686,-1.04498 7.71051,-5.21372 9.17304,-8.23491 1.56733,-3.23768 1.9281,-8.26214 0.85764,-11.9444 -0.67877,-2.33488 -1.50078,-3.6153 -3.84577,-5.99044 -4.29237,-4.34754 -6.02401,-5.05542 -12.36664,-5.05542 -4.39509,0 -5.59761,0.18924 -7.66105,1.20561 -9.3724,4.6165 -12.19397,16.50417 -5.88,24.77333 1.88232,2.4652 4.37796,4.25378 7.48425,5.36381 2.66758,0.95326 9.28231,0.88971 12.23853,-0.11758 z M 107.4255,256.89269 c 3.81655,-1.74727 6.31335,-4.10574 8.01502,-7.57096 1.24549,-2.53625 1.45459,-3.59908 1.45459,-7.39346 0,-3.93754 -0.17234,-4.74256 -1.54645,-7.2234 -3.3395,-6.02919 -9.07786,-9.20756 -15.918486,-8.81695 -6.800873,0.38834 -11.637128,3.50326 -14.578646,9.38976 -5.566003,11.13856 3.461107,23.93622 16.294092,23.09999 2.2115,-0.14411 4.56838,-0.70143 6.27988,-1.48498 z m 141.01692,0.1441 c 3.19172,-1.37304 7.02427,-5.28837 8.55443,-8.73917 0.76943,-1.73523 1.09114,-3.54081 1.0927,-6.1327 0.007,-10.98748 -10.31957,-18.53338 -21.45727,-15.68003 -7.56651,1.93845 -12.1894,7.85857 -12.26295,15.70405 -0.0691,7.3676 4.36091,13.21581 11.91297,15.72685 2.92206,0.97158 8.8553,0.54269 12.16012,-0.879 z m -58.55951,-23.46406 c 15.31196,-3.20747 27.94839,-10.03789 38.71739,-20.92806 10.54984,-10.66855 17.17475,-22.93415 20.54174,-38.03175 1.60455,-7.19474 1.72748,-22.20253 0.23864,-29.13282 -4.69058,-21.83385 -16.5603,-39.2001 -34.47703,-50.44233 -6.44279,-4.042664 -16.72033,-8.122708 -24.92082,-9.893231 -6.10094,-1.317221 -23.78807,-1.292249 -30.06457,0.04244 -13.49018,2.868692 -24.27207,8.247924 -34.43554,17.180371 -12.93967,11.37239 -20.8329,24.93615 -24.60213,42.27648 -1.626395,7.48222 -1.617647,22.20495 0.0176,29.64874 3.30084,15.02554 9.51357,26.80102 19.73453,37.4044 12.21139,12.66828 27.62843,20.52164 45.0078,22.92675 5.44071,0.75293 18.28999,0.19586 24.24238,-1.05101 z M 50.163408,218.46791 c -0.177214,-0.28674 -0.605807,-0.52135 -0.95243,-0.52135 -0.346622,0 -1.52404,-0.60736 -2.616483,-1.3497 -1.092444,-0.74233 -2.097658,-1.2383 -2.23381,-1.10214 -0.283591,0.28358 2.625946,2.15979 4.526039,2.91859 1.661076,0.66335 1.652695,0.663 1.276684,0.0546 z m 6.125762,0.1442 c -0.931898,-0.11565 -2.456822,-0.11565 -3.38872,0 -0.931897,0.11565 -0.169436,0.21027 1.69436,0.21027 1.863796,0 2.626258,-0.0946 1.69436,-0.21027 z m 3.899201,-0.45918 c -0.173242,-0.17324 -0.622899,-0.19176 -0.99924,-0.0411 -0.415889,0.16643 -0.292357,0.28996 0.314979,0.31498 0.549578,0.0226 0.857498,-0.10059 0.684261,-0.27382 z M 294.7453,217.21012 c 7.1034,-3.30746 10.8042,-10.20992 9.45476,-17.63436 -0.64438,-3.54532 -1.93162,-5.97314 -4.56126,-8.60278 -3.60854,-3.60853 -6.18379,-4.56757 -12.26504,-4.56757 -4.41271,0 -5.55149,0.18065 -7.41462,1.17622 -6.74612,3.6048 -10.23185,10.58211 -8.91062,17.8362 0.66243,3.63697 1.89466,6.02074 4.41364,8.53825 3.53815,3.53608 5.91078,4.4058 12.17227,4.46192 3.63484,0.0326 4.91305,-0.18454 7.11087,-1.20788 z M 64.500297,216.38254 c 0,-0.28674 -0.103455,-0.52134 -0.229901,-0.52134 -0.126446,0 -0.374896,0.2346 -0.552111,0.52134 -0.177214,0.28674 -0.07376,0.52134 0.229901,0.52134 0.303661,0 0.552111,-0.2346 0.552111,-0.52134 z m 1.846133,-1.07737 c 0.561104,-0.90788 -0.07795,-1.10015 -0.792992,-0.23858 -0.411208,0.49547 -0.450762,0.79461 -0.10506,0.79461 0.304922,0 0.709045,-0.25021 0.898052,-0.55603 z m -6.890387,-0.6937 c 4.462171,-1.34291 8.7551,-6.14561 8.622648,-9.64656 -0.05078,-1.34242 -0.129433,-1.50558 -0.27629,-0.57322 -0.627492,3.98385 0.687848,3.59475 -12.714201,3.76105 l -12.008312,0.14901 -0.722995,-2.34604 c -0.397647,-1.29032 -0.739335,-1.89225 -0.759307,-1.33762 -0.06073,1.68651 2.009592,5.36569 4.005417,7.11805 3.935543,3.45545 8.664225,4.43694 13.85304,2.87533 z m 9.736327,-2.39966 c 0,-0.28674 -0.103455,-0.52134 -0.229901,-0.52134 -0.126446,0 -0.374896,0.2346 -0.552111,0.52134 -0.177214,0.28674 -0.07376,0.52134 0.229901,0.52134 0.303661,0 0.552111,-0.2346 0.552111,-0.52134 z m -28.152437,-0.75124 c 0,-0.12645 -0.234604,-0.3749 -0.521342,-0.55212 -0.286738,-0.17721 -0.521341,-0.0737 -0.521341,0.22991 0,0.30366 0.234603,0.55211 0.521341,0.55211 0.286738,0 0.521342,-0.10346 0.521342,-0.2299 z m 30.583077,-6.15654 c -0.144625,-0.35842 -0.262959,-0.0652 -0.262959,0.65168 0,0.71685 0.118334,1.0101 0.262959,0.65168 0.144625,-0.35842 0.144625,-0.94493 0,-1.30336 z m -33.351752,-1.30335 c -0.131132,-0.50179 -0.238421,-0.0912 -0.238421,0.91235 0,1.00358 0.107289,1.41414 0.238421,0.91235 0.131132,-0.5018 0.131132,-1.32291 0,-1.8247 z m 33.896544,-2.33996 c -0.1247,-0.6485 -0.231466,-0.24068 -0.237253,0.90627 -0.0058,1.14695 0.09624,1.67755 0.226732,1.1791 0.130486,-0.49845 0.13522,-1.43687 0.01053,-2.08537 z m -30.771734,0.54785 c -0.166426,-0.41589 -0.289961,-0.29236 -0.314977,0.31498 -0.02264,0.54958 0.100581,0.8575 0.273819,0.68426 0.173237,-0.17324 0.191759,-0.6229 0.04116,-0.99924 z m -3.12481,-2.89996 c -0.131132,-0.50179 -0.238421,-0.0912 -0.238421,0.91234 0,1.00359 0.107289,1.41414 0.238421,0.91235 0.131132,-0.50179 0.131132,-1.3229 0,-1.82469 z m 29.716464,0 c -0.131133,-0.50179 -0.238425,-0.0912 -0.238425,0.91234 0,1.00359 0.107292,1.41414 0.238425,0.91235 0.131128,-0.50179 0.131128,-1.3229 0,-1.82469 z M 43.250345,196.8214 c 1.871558,-3.59085 5.213596,-5.88156 9.499612,-6.51126 2.555282,-0.37542 2.570038,-0.38739 0.541499,-0.43952 -2.321131,-0.0597 -6.129519,1.47009 -8.002062,3.21425 -1.590839,1.48177 -3.742982,5.72724 -3.674755,7.24909 0.04324,0.96444 0.125629,0.89352 0.434125,-0.37368 0.209418,-0.86021 0.750129,-2.27271 1.201581,-3.13888 z m 28.383525,1.73778 c -0.166423,-0.41589 -0.28996,-0.29236 -0.314974,0.31498 -0.02263,0.54958 0.100577,0.8575 0.273819,0.68426 0.173237,-0.17324 0.191755,-0.6229 0.04113,-0.99924 z m -4.702552,-2.33017 c -1.702305,-3.26014 -6.726316,-6.46163 -9.990472,-6.36631 -1.273326,0.0372 -1.142198,0.12861 0.705498,0.49189 3.362472,0.66111 6.763767,2.8767 8.340767,5.43315 1.526118,2.47396 2.160366,2.77037 0.944207,0.44127 z m -26.152056,-2.78549 c 0.177214,-0.28674 0.07376,-0.52135 -0.229903,-0.52135 -0.30366,0 -0.552109,0.23461 -0.552109,0.52135 0,0.28673 0.103456,0.52134 0.229902,0.52134 0.126447,0 0.374896,-0.23461 0.55211,-0.52134 z m 28.173875,-1.008 c -0.189007,-0.30582 -0.59313,-0.55603 -0.898052,-0.55603 -0.345702,0 -0.306147,0.29914 0.105061,0.79461 0.71504,0.86157 1.354095,0.6693 0.792991,-0.23858 z m -2.606707,-2.60671 c -0.189007,-0.30581 -0.59313,-0.55603 -0.898052,-0.55603 -0.345702,0 -0.306148,0.29914 0.10506,0.79462 0.715041,0.86157 1.354096,0.6693 0.792992,-0.23859 z M 46.514018,188.2301 c 0.177214,-0.28674 0.07376,-0.52134 -0.229903,-0.52134 -0.30366,0 -0.552109,0.2346 -0.552109,0.52134 0,0.28674 0.103456,0.52134 0.229902,0.52134 0.126447,0 0.374896,-0.2346 0.55211,-0.52134 z m 5.083079,-1.9093 c -0.358423,-0.14462 -0.944932,-0.14462 -1.303354,0 -0.358422,0.14463 -0.06517,0.26296 0.651677,0.26296 0.716844,0 1.010099,-0.11833 0.651677,-0.26296 z m 7.548591,0.0303 c -0.173242,-0.17323 -0.622899,-0.19175 -0.999239,-0.0411 -0.41589,0.16642 -0.292358,0.28996 0.314978,0.31497 0.549578,0.0226 0.857498,-0.10058 0.684261,-0.27382 z m -3.37786,-0.57428 c -0.64516,-0.12427 -1.700876,-0.12427 -2.346036,0 -0.64516,0.12426 -0.117302,0.22593 1.173018,0.22593 1.29032,0 1.818178,-0.10167 1.173018,-0.22593 z M 127.06127,45.121876 V 16.187426 H 70.235053 13.408836 v 28.630335 c 0,22.416463 0.141439,28.687403 0.651677,28.893291 0.358422,0.144626 25.93022,0.281478 56.826217,0.304114 l 56.17454,0.04116 z m 81.85061,-0.782012 V 15.144743 h -37.79726 -37.79725 v 29.195121 29.195121 h 37.79725 37.79726 z m 119.38719,0.487068 c 0,-18.432829 -0.18676,-28.535667 -0.53969,-29.195121 -0.52837,-0.987272 -1.7009,-1.008409 -55.93993,-1.008409 -42.39397,0 -55.54713,0.146874 -56.02587,0.62561 -0.47136,0.471363 -0.62561,7.669512 -0.62561,29.19512 v 28.569511 h 56.56555 56.56555 z"
     id="path3883"
     inkscape:connector-curvature="0" />
  <rect
     style="fill:#ffffff;fill-opacity:1;fill-rule:evenodd;stroke:#ffffff;stroke-opacity:1"
     id="rect3891"
     width="319.58231"
     height="261.71341"
     x="6.6313977"
     y="79.790955"
     ry="21.896299" />
  <rect
     style="fill:#0000ff;fill-rule:evenodd"
     id="rect97"
     width="0"
     height="0"
     x="186.64024"
     y="122.78049"
     ry="0" />
  <rect
     style="fill:none;fill-rule:evenodd;stroke:#000000;stroke-width:2.10400677;stroke-miterlimit:10;stroke-dasharray:none;stroke-opacity:1"
     id="rect904"
     width="82.267944"
     height="82.267944"
     x="26.807392"
     y="224.724" />
  <rect
     y="224.724"
     x="131.07533"
     height="82.267944"
     width="82.267944"
     id="rect906"
     style="fill:none;fill-rule:evenodd;stroke:#000000;stroke-width:2.10400677;stroke-miterlimit:10;stroke-dasharray:none;stroke-opacity:1" />
  <rect
     y="224.724"
     x="233.34328"
     height="82.267944"
     width="82.267944"
     id="rect908"
     style="fill:none;fill-rule:evenodd;stroke:#000000;stroke-width:2.10400677;stroke-miterlimit:10;stroke-dasharray:none;stroke-opacity:1" />
  <text
     xml:space="preserve"
     style="font-style:normal;font-weight:normal;font-size:40px;line-height:1.25;font-family:sans-serif;letter-spacing:0px;word-spacing:0px;fill:#000000;fill-opacity:1;stroke:none"
     x="64.04277"
     y="262.41763"
     id="text912"><tspan
       sodipodi:role="line"
       id="tspan910"
       x="64.04277"
       y="262.41763">1</tspan></text>
  <text
     xml:space="preserve"
     style="font-style:normal;font-weight:normal;font-size:40px;line-height:1.25;font-family:sans-serif;letter-spacing:0px;word-spacing:0px;fill:#000000;fill-opacity:1;stroke:none"
     x="164.7439"
     y="265.62805"
     id="text916"><tspan
       sodipodi:role="line"
       id="tspan914"
       x="164.7439"
       y="265.62805">2</tspan></text>
  <text
     xml:space="preserve"
     style="font-style:normal;font-weight:normal;font-size:40px;line-height:1.25;font-family:sans-serif;letter-spacing:0px;word-spacing:0px;fill:#000000;fill-opacity:1;stroke:none"
     x="256.5"
     y="263.02133"
     id="text920"><tspan
       sodipodi:role="line"
       id="tspan918"
       x="256.5"
       y="263.02133">3</tspan></text>
</svg>
